<svg width="102" height="47" viewBox="0 0 102 47" fill="none" xmlns="http://www.w3.org/2000/svg">
<path d="M10.8318 23.9511C9.55181 23.9511 8.35981 23.7431 7.25581 23.3271C6.1678 22.8951 5.2158 22.2951 4.3998 21.5271C3.5998 20.7431 2.9758 19.8231 2.5278 18.7671C2.0798 17.7111 1.8558 16.5591 1.8558 15.3111C1.8558 14.0631 2.0798 12.9111 2.5278 11.8551C2.9758 10.7991 3.6078 9.88712 4.4238 9.11912C5.2398 8.33512 6.1918 7.73512 7.2798 7.31912C8.36781 6.88712 9.55981 6.67112 10.8558 6.67112C12.2318 6.67112 13.4878 6.91112 14.6238 7.39112C15.7598 7.85512 16.7198 8.55112 17.5038 9.47912L15.4878 11.3751C14.8798 10.7191 14.1998 10.2311 13.4478 9.91112C12.6958 9.57512 11.8798 9.40712 10.9998 9.40712C10.1198 9.40712 9.3118 9.55112 8.5758 9.83912C7.8558 10.1271 7.2238 10.5351 6.6798 11.0631C6.1518 11.5911 5.7358 12.2151 5.4318 12.9351C5.1438 13.6551 4.9998 14.4471 4.9998 15.3111C4.9998 16.1751 5.1438 16.9671 5.4318 17.6871C5.7358 18.4071 6.1518 19.0311 6.6798 19.5591C7.2238 20.0871 7.8558 20.4951 8.5758 20.7831C9.3118 21.0711 10.1198 21.2151 10.9998 21.2151C11.8798 21.2151 12.6958 21.0551 13.4478 20.7351C14.1998 20.3991 14.8798 19.8951 15.4878 19.2231L17.5038 21.1431C16.7198 22.0551 15.7598 22.7511 14.6238 23.2311C13.4878 23.7111 12.2238 23.9511 10.8318 23.9511ZM25.4731 23.8791C24.1611 23.8791 22.9931 23.5991 21.9691 23.0391C20.9451 22.4631 20.1371 21.6791 19.5451 20.6871C18.9531 19.6951 18.6571 18.5671 18.6571 17.3031C18.6571 16.0231 18.9531 14.8951 19.5451 13.9191C20.1371 12.9271 20.9451 12.1511 21.9691 11.5911C22.9931 11.0311 24.1611 10.7511 25.4731 10.7511C26.8011 10.7511 27.9771 11.0311 29.0011 11.5911C30.0411 12.1511 30.8491 12.9191 31.4251 13.8951C32.0171 14.8711 32.3131 16.0071 32.3131 17.3031C32.3131 18.5671 32.0171 19.6951 31.4251 20.6871C30.8491 21.6791 30.0411 22.4631 29.0011 23.0391C27.9771 23.5991 26.8011 23.8791 25.4731 23.8791ZM25.4731 21.3111C26.2091 21.3111 26.8651 21.1511 27.4411 20.8311C28.0171 20.5111 28.4651 20.0471 28.7851 19.4391C29.1211 18.8311 29.2891 18.1191 29.2891 17.3031C29.2891 16.4711 29.1211 15.7591 28.7851 15.1671C28.4651 14.5591 28.0171 14.0951 27.4411 13.7751C26.8651 13.4551 26.2171 13.2951 25.4971 13.2951C24.7611 13.2951 24.1051 13.4551 23.5291 13.7751C22.9691 14.0951 22.5211 14.5591 22.1851 15.1671C21.8491 15.7591 21.6811 16.4711 21.6811 17.3031C21.6811 18.1191 21.8491 18.8311 22.1851 19.4391C22.5211 20.0471 22.9691 20.5111 23.5291 20.8311C24.1051 21.1511 24.7531 21.3111 25.4731 21.3111ZM42.4539 10.7511C43.4779 10.7511 44.3899 10.9511 45.1899 11.3511C46.0059 11.7511 46.6459 12.3671 47.1099 13.1991C47.5739 14.0151 47.8059 15.0711 47.8059 16.3671V23.7111H44.8059V16.7511C44.8059 15.6151 44.5339 14.7671 43.9899 14.2071C43.4619 13.6471 42.7179 13.3671 41.7579 13.3671C41.0539 13.3671 40.4299 13.5111 39.8859 13.7991C39.3419 14.0871 38.9179 14.5191 38.6139 15.0951C38.3259 15.6551 38.1819 16.3671 38.1819 17.2311V23.7111H35.1819V10.8951H38.0379V14.3511L37.5339 13.2951C37.9819 12.4791 38.6299 11.8551 39.4779 11.4231C40.3419 10.9751 41.3339 10.7511 42.4539 10.7511ZM56.4356 23.8791C55.0276 23.8791 53.9396 23.5191 53.1716 22.7991C52.4036 22.0631 52.0196 20.9831 52.0196 19.5591V8.06312H55.0196V19.4871C55.0196 20.0951 55.1716 20.5671 55.4756 20.9031C55.7956 21.2391 56.2356 21.4071 56.7956 21.4071C57.4676 21.4071 58.0276 21.2311 58.4756 20.8791L59.3156 23.0151C58.9636 23.3031 58.5316 23.5191 58.0196 23.6631C57.5076 23.8071 56.9796 23.8791 56.4356 23.8791ZM49.9076 13.3911V10.9911H58.4516V13.3911H49.9076ZM67.3856 23.8791C65.9616 23.8791 64.7136 23.5991 63.6416 23.0391C62.5856 22.4631 61.7616 21.6791 61.1696 20.6871C60.5936 19.6951 60.3056 18.5671 60.3056 17.3031C60.3056 16.0231 60.5856 14.8951 61.1456 13.9191C61.7216 12.9271 62.5056 12.1511 63.4976 11.5911C64.5056 11.0311 65.6496 10.7511 66.9296 10.7511C68.1776 10.7511 69.2896 11.0231 70.2656 11.5671C71.2416 12.1111 72.0096 12.8791 72.5696 13.8711C73.1296 14.8631 73.4096 16.0311 73.4096 17.3751C73.4096 17.5031 73.4016 17.6471 73.3856 17.8071C73.3856 17.9671 73.3776 18.1191 73.3616 18.2631H62.6816V16.2711H71.7776L70.6016 16.8951C70.6176 16.1591 70.4656 15.5111 70.1456 14.9511C69.8256 14.3911 69.3856 13.9511 68.8256 13.6311C68.2816 13.3111 67.6496 13.1511 66.9296 13.1511C66.1936 13.1511 65.5456 13.3111 64.9856 13.6311C64.4416 13.9511 64.0096 14.3991 63.6896 14.9751C63.3856 15.5351 63.2336 16.1991 63.2336 16.9671V17.4471C63.2336 18.2151 63.4096 18.8951 63.7616 19.4871C64.1136 20.0791 64.6096 20.5351 65.2496 20.8551C65.8896 21.1751 66.6256 21.3351 67.4576 21.3351C68.1776 21.3351 68.8256 21.2231 69.4016 20.9991C69.9776 20.7751 70.4896 20.4231 70.9376 19.9431L72.5456 21.7911C71.9696 22.4631 71.2416 22.9831 70.3616 23.3511C69.4976 23.7031 68.5056 23.8791 67.3856 23.8791ZM83.5632 10.7511C84.5872 10.7511 85.4992 10.9511 86.2992 11.3511C87.1152 11.7511 87.7552 12.3671 88.2192 13.1991C88.6832 14.0151 88.9152 15.0711 88.9152 16.3671V23.7111H85.9152V16.7511C85.9152 15.6151 85.6432 14.7671 85.0992 14.2071C84.5712 13.6471 83.8272 13.3671 82.8672 13.3671C82.1632 13.3671 81.5392 13.5111 80.9952 13.7991C80.4512 14.0871 80.0272 14.5191 79.7232 15.0951C79.4352 15.6551 79.2912 16.3671 79.2912 17.2311V23.7111H76.2912V10.8951H79.1472V14.3511L78.6432 13.2951C79.0912 12.4791 79.7392 11.8551 80.5872 11.4231C81.4512 10.9751 82.4432 10.7511 83.5632 10.7511ZM97.5449 23.8791C96.1369 23.8791 95.0489 23.5191 94.2809 22.7991C93.5129 22.0631 93.1289 20.9831 93.1289 19.5591V8.06312H96.1289V19.4871C96.1289 20.0951 96.2809 20.5671 96.5849 20.9031C96.9049 21.2391 97.3449 21.4071 97.9049 21.4071C98.5769 21.4071 99.1369 21.2311 99.5849 20.8791L100.425 23.0151C100.073 23.3031 99.6409 23.5191 99.1289 23.6631C98.6169 23.8071 98.0889 23.8791 97.5449 23.8791ZM91.0169 13.3911V10.9911H99.5609V13.3911H91.0169Z" fill="#0C356A"/>
<path d="M58.6663 36.7171C65.4704 34.007 69.7086 32.4502 80.9526 29.7112C74.8405 30.1149 61.3764 31.0086 52.0929 32.8538C52.064 32.825 58.5222 36.6306 58.6663 36.7171Z" fill="#0C356A"/>
<path d="M37.5068 45.7412H46.4156C48.1454 43.0887 49.9618 41.7625 51.9511 40.321C50.4231 39.7155 48.8662 39.1389 47.2805 38.5911C41.6008 41.0706 38.4294 44.4149 37.5068 45.7412Z" fill="#0C356A"/>
<path d="M39.2633 36.0247C31.3348 38.8501 26.9237 41.9639 23.9541 45.7407H33.7566C34.708 44.3857 38.3696 40.5511 45.2313 37.8987C43.2997 37.2356 40.0418 36.2265 39.2633 36.0247Z" fill="#0C356A"/>
<path d="M43.3571 30.0283H21.6475C43.5301 34.0069 54.0822 39.11 71.0925 46.2889C69.5933 45.2222 46.1826 31.441 43.3571 30.0283Z" fill="#0C356A"/>
</svg>
