<svg width="98" height="57" viewBox="0 0 98 57" fill="none" xmlns="http://www.w3.org/2000/svg">
<circle cx="28.5" cy="28.5" r="28.5" fill="#6D86A6"/>
<path d="M15.7031 18.293C15.7031 18.293 17.9609 18.293 22.4766 18.293C21.4297 18.5117 20.6953 19.0547 20.2734 19.9219L20.25 20.0273V30.1641C20.2891 31.3281 20.7031 32.3203 21.4922 33.1406C22.3359 34.0156 23.3594 34.4531 24.5625 34.4531C25.7656 34.4531 26.7891 34.0156 27.6328 33.1406C28.4219 32.3203 28.8398 31.3281 28.8867 30.1641V20.0273L28.8633 19.9336C28.3633 19.0273 27.6289 18.4805 26.6602 18.293H32.4258C31.3789 18.5117 30.6445 19.0547 30.2227 19.9219L30.1992 20.0273V30.1641V30.1992C30.1992 31.0273 30.0352 31.8164 29.707 32.5664C29.3867 33.3164 28.957 33.9648 28.418 34.5117C27.8711 35.0586 27.2188 35.4922 26.4609 35.8125C25.7031 36.1328 24.9062 36.293 24.0703 36.293C23.2344 36.293 22.4375 36.1328 21.6797 35.8125C20.9219 35.4922 20.2695 35.0586 19.7227 34.5117C19.1836 33.9648 18.75 33.3164 18.4219 32.5664C18.0938 31.8164 17.9297 31.0273 17.9297 30.1992V30.1641V20.0273L17.9062 19.9336C17.4062 19.0273 16.6719 18.4805 15.7031 18.293ZM33.8438 36C34.8125 35.8125 35.5469 35.2656 36.0469 34.3594L36.0703 34.2656V20.0273L36.0469 19.9336C35.5469 19.0273 34.8125 18.4805 33.8438 18.293H40.6172C39.5703 18.5117 38.8359 19.0547 38.4141 19.9219L38.3906 20.0273V34.2656L38.4141 34.3711C38.8359 35.2383 39.5703 35.7812 40.6172 36H33.8438Z" fill="#110F1A"/>
<circle cx="69.5" cy="28.5" r="28.5" fill="#6D86A6"/>
<path d="M53.7031 18.293C53.7031 18.293 55.9609 18.293 60.4766 18.293C59.4297 18.5117 58.6953 19.0547 58.2734 19.9219L58.25 20.0273V30.1641C58.2891 31.3281 58.7031 32.3203 59.4922 33.1406C60.3359 34.0156 61.3594 34.4531 62.5625 34.4531C63.7656 34.4531 64.7891 34.0156 65.6328 33.1406C66.4219 32.3203 66.8398 31.3281 66.8867 30.1641V20.0273L66.8633 19.9336C66.3633 19.0273 65.6289 18.4805 64.6602 18.293H70.4258C69.3789 18.5117 68.6445 19.0547 68.2227 19.9219L68.1992 20.0273V30.1641V30.1992C68.1992 31.0273 68.0352 31.8164 67.707 32.5664C67.3867 33.3164 66.957 33.9648 66.418 34.5117C65.8711 35.0586 65.2188 35.4922 64.4609 35.8125C63.7031 36.1328 62.9062 36.293 62.0703 36.293C61.2344 36.293 60.4375 36.1328 59.6797 35.8125C58.9219 35.4922 58.2695 35.0586 57.7227 34.5117C57.1836 33.9648 56.75 33.3164 56.4219 32.5664C56.0938 31.8164 55.9297 31.0273 55.9297 30.1992V30.1641V20.0273L55.9062 19.9336C55.4062 19.0273 54.6719 18.4805 53.7031 18.293ZM71.1172 36C71.8594 35.8125 72.4961 35.4023 73.0273 34.7695L73.332 34.2891L77.4688 27.5625L73.0156 20.0273L72.957 19.9219C72.5117 19.1172 71.7891 18.5742 70.7891 18.293H77.5625C76.1719 18.8867 75.4766 19.3828 75.4766 19.7812C75.4766 19.8359 75.4922 19.8906 75.5234 19.9453L75.5586 20.0273L78.8281 25.6289L82.1797 20.0156L82.2383 19.9102C82.3008 19.8086 82.332 19.707 82.332 19.6055V19.5938C82.332 19.1328 81.6133 18.6992 80.1758 18.293H85.8594C85.0234 18.5273 84.3828 18.9453 83.9375 19.5469L83.668 19.9688L79.6484 26.9297L83.9492 34.3828L84.0195 34.5C84.4727 35.2344 85.1719 35.7344 86.1172 36H79.3438C80.7656 35.5547 81.4766 35.0938 81.4766 34.6172C81.4766 34.5312 81.4531 34.4453 81.4062 34.3594L81.3594 34.2656L78.2422 28.8633L74.7969 34.2656L74.7383 34.3594C74.668 34.4766 74.6328 34.5898 74.6328 34.6992C74.6328 35.1914 75.3555 35.625 76.8008 36H71.1172Z" fill="#110F1A"/>
</svg>
