<svg width="198" height="155" viewBox="0 0 198 155" fill="none" xmlns="http://www.w3.org/2000/svg">
<path d="M150.361 150.434C150.21 150.965 150.519 151.518 151.05 151.669L159.708 154.126C160.239 154.277 160.792 153.969 160.943 153.437C161.094 152.906 160.785 152.353 160.254 152.202L152.558 150.018L154.742 142.322C154.893 141.791 154.585 141.238 154.053 141.087C153.522 140.936 152.969 141.245 152.818 141.776L150.361 150.434ZM148.396 2.66333C177.399 13.7369 193.582 41.8012 194.714 71.5298C195.844 101.243 181.924 132.491 150.836 149.834L151.81 151.58C183.626 133.832 197.868 101.835 196.712 71.4538C195.557 41.0879 179.003 12.2086 149.109 0.794887L148.396 2.66333Z" fill="#6D86A6"/>
<path d="M46.7299 3.77924C46.8807 3.24795 46.5722 2.69499 46.041 2.54419L37.3829 0.0868211C36.8516 -0.0639775 36.2987 0.244482 36.1479 0.775789C35.9971 1.30708 36.3055 1.86002 36.8368 2.01082L44.5329 4.19517L42.3485 11.8912C42.1977 12.4225 42.5062 12.9754 43.0375 13.1262C43.5688 13.277 44.1217 12.9686 44.2725 12.4373L46.7299 3.77924ZM48.6953 151.55C19.6923 140.476 3.50862 112.412 2.37719 82.6833C1.24633 52.9697 15.1671 21.7217 46.2551 4.3795L45.2807 2.6329C13.4648 20.3812 -0.777611 52.3786 0.378637 82.7594C1.53432 113.125 18.088 142.005 47.9819 153.418L48.6953 151.55Z" fill="#6D86A6"/>
</svg>
