<svg width="126" height="125" viewBox="0 0 126 125" fill="none" xmlns="http://www.w3.org/2000/svg">
<circle cx="62.8125" cy="62.5" r="61" stroke="#0C356A" stroke-width="3"/>
<path d="M54.8682 70.125L59.2015 75L70.7571 62" stroke="#6D86A6" stroke-width="5" stroke-linecap="round" stroke-linejoin="round"/>
<path d="M57.0067 41H68.6178C74.4234 41 74.4234 37.5 74.4234 34C74.4234 27 71.5206 27 68.6178 27H57.0067C54.1039 27 51.2012 27 51.2012 34C51.2012 41 54.1039 41 57.0067 41Z" stroke="#6D86A6" stroke-width="5" stroke-miterlimit="10" stroke-linecap="round" stroke-linejoin="round"/>
<path d="M75.0347 34C85.2097 34.6107 90.3125 38.7836 90.3125 54.2881V74.644C90.3125 88.2147 87.2569 95 71.9792 95H53.6458C38.3681 95 35.3125 88.2147 35.3125 74.644V54.2881C35.3125 38.8176 40.4153 34.6107 50.5903 34" stroke="#6D86A6" stroke-width="5" stroke-miterlimit="10" stroke-linecap="round" stroke-linejoin="round"/>
</svg>
