<svg width="141" height="37" viewBox="0 0 141 37" fill="none" xmlns="http://www.w3.org/2000/svg">
<path d="M11.1002 25.9V22.2M18.5002 25.9V18.5M25.9002 25.9V11.1M7.40019 33.3C5.35674 33.3 3.7002 31.6435 3.7002 29.6V7.40001C3.7002 5.35656 5.35674 3.70001 7.40019 3.70001H29.6002C31.6436 3.70001 33.3002 5.35656 33.3002 7.40001V29.6C33.3002 31.6435 31.6436 33.3 29.6002 33.3H7.40019Z" stroke="#0C356A" stroke-width="2.5" stroke-linecap="round" stroke-linejoin="round"/>
<path d="M134.298 24.35C133.365 24.35 132.491 24.2366 131.678 24.01C130.865 23.7833 130.238 23.51 129.798 23.19L130.838 21.27C131.278 21.5766 131.825 21.83 132.478 22.03C133.145 22.2166 133.838 22.31 134.558 22.31C135.385 22.31 135.991 22.1966 136.378 21.97C136.778 21.7433 136.978 21.43 136.978 21.03C136.978 20.7366 136.838 20.5166 136.558 20.37C136.278 20.2233 135.918 20.1033 135.478 20.01C135.051 19.9166 134.585 19.8166 134.078 19.71C133.585 19.6033 133.118 19.4566 132.678 19.27C132.251 19.0833 131.898 18.81 131.618 18.45C131.338 18.09 131.198 17.61 131.198 17.01C131.198 16.25 131.411 15.6033 131.838 15.07C132.265 14.5366 132.858 14.13 133.618 13.85C134.391 13.5566 135.278 13.41 136.278 13.41C136.998 13.41 137.705 13.49 138.398 13.65C139.091 13.81 139.665 14.0366 140.118 14.33L139.198 16.25C138.718 15.9433 138.198 15.73 137.638 15.61C137.091 15.49 136.558 15.43 136.038 15.43C135.225 15.43 134.618 15.5566 134.218 15.81C133.831 16.05 133.638 16.3566 133.638 16.73C133.638 17.0233 133.778 17.25 134.058 17.41C134.338 17.57 134.691 17.7033 135.118 17.81C135.558 17.9033 136.025 18.0033 136.518 18.11C137.025 18.2033 137.491 18.3433 137.918 18.53C138.358 18.7166 138.718 18.99 138.998 19.35C139.278 19.6966 139.418 20.1633 139.418 20.75C139.418 21.5233 139.198 22.1833 138.758 22.73C138.331 23.2633 137.731 23.67 136.958 23.95C136.185 24.2166 135.298 24.35 134.298 24.35Z" fill="#0C356A"/>
<path d="M124.377 24.35C123.323 24.35 122.397 24.1566 121.597 23.77C120.81 23.37 120.203 22.8233 119.777 22.13C119.35 21.4233 119.137 20.5966 119.137 19.65C119.137 18.45 119.41 17.3833 119.957 16.45C120.503 15.5033 121.257 14.7633 122.217 14.23C123.177 13.6833 124.283 13.41 125.537 13.41C126.617 13.41 127.543 13.6233 128.317 14.05C129.103 14.4633 129.71 15.0833 130.137 15.91L127.997 17.01C127.757 16.5033 127.41 16.13 126.957 15.89C126.517 15.65 125.977 15.53 125.337 15.53C124.643 15.53 124.017 15.7033 123.457 16.05C122.897 16.3833 122.457 16.85 122.137 17.45C121.817 18.05 121.657 18.7433 121.657 19.53C121.657 20.3566 121.903 21.01 122.397 21.49C122.89 21.97 123.59 22.21 124.497 22.21C125.083 22.21 125.63 22.09 126.137 21.85C126.643 21.61 127.07 21.2366 127.417 20.73L129.257 21.97C128.763 22.7166 128.083 23.3033 127.217 23.73C126.35 24.1433 125.403 24.35 124.377 24.35Z" fill="#0C356A"/>
<path d="M113.256 24.2101L115.376 13.5301H117.876L115.756 24.2101H113.256ZM117.196 11.7701C116.743 11.7701 116.376 11.6367 116.096 11.3701C115.829 11.0901 115.696 10.7567 115.696 10.3701C115.696 9.91675 115.849 9.53675 116.156 9.23008C116.476 8.92341 116.889 8.77008 117.396 8.77008C117.836 8.77008 118.196 8.90341 118.476 9.17008C118.756 9.42341 118.896 9.73675 118.896 10.1101C118.896 10.6034 118.743 11.0034 118.436 11.3101C118.129 11.6167 117.716 11.7701 117.196 11.7701Z" fill="#0C356A"/>
<path d="M108.779 24.35C108.086 24.35 107.486 24.2033 106.979 23.91C106.486 23.6033 106.126 23.1767 105.899 22.63C105.686 22.07 105.652 21.41 105.799 20.65L107.699 11.17H110.199L108.299 20.63C108.219 21.1233 108.272 21.5233 108.459 21.83C108.646 22.1367 108.999 22.29 109.519 22.29C109.759 22.29 109.999 22.2566 110.239 22.19C110.492 22.11 110.719 22.0033 110.919 21.87L111.359 23.71C110.986 23.95 110.572 24.1166 110.119 24.21C109.666 24.3033 109.219 24.35 108.779 24.35ZM105.079 15.61L105.479 13.61H112.579L112.179 15.61H105.079Z" fill="#0C356A"/>
<path d="M93.2033 28.23C92.67 28.23 92.15 28.1433 91.6433 27.97C91.1233 27.7966 90.71 27.57 90.4033 27.29L91.6433 25.47C91.87 25.67 92.1233 25.83 92.4033 25.95C92.6967 26.0833 93.03 26.15 93.4033 26.15C93.8167 26.15 94.1833 26.0366 94.5033 25.81C94.8367 25.5966 95.17 25.2233 95.5033 24.69L96.4433 23.23L96.6833 22.97L102.563 13.53H105.063L97.7033 25.15C97.21 25.9233 96.7367 26.5366 96.2833 26.99C95.83 27.4433 95.3567 27.7633 94.8633 27.95C94.3833 28.1366 93.83 28.23 93.2033 28.23ZM95.9433 24.59L93.3233 13.53H95.8233L97.9233 22.75L95.9433 24.59Z" fill="#0C356A"/>
<path d="M87.1426 24.2101L90.1026 9.37006H92.6026L89.6426 24.2101H87.1426Z" fill="#0C356A"/>
<path d="M78.2313 24.35C77.3646 24.35 76.5712 24.1633 75.8512 23.79C75.1446 23.4166 74.5779 22.8833 74.1512 22.19C73.7379 21.4833 73.5312 20.6366 73.5312 19.65C73.5312 18.7433 73.6779 17.91 73.9713 17.15C74.2779 16.39 74.7046 15.73 75.2512 15.17C75.7979 14.61 76.4312 14.1766 77.1512 13.87C77.8846 13.5633 78.6846 13.41 79.5513 13.41C80.4446 13.41 81.2112 13.57 81.8512 13.89C82.5046 14.21 82.9979 14.6966 83.3312 15.35C83.6646 15.99 83.8179 16.79 83.7913 17.75C83.7646 19.07 83.5246 20.23 83.0713 21.23C82.6179 22.2166 81.9846 22.9833 81.1712 23.53C80.3579 24.0766 79.3779 24.35 78.2313 24.35ZM78.8713 22.21C79.5912 22.21 80.2246 22.0433 80.7713 21.71C81.3179 21.3633 81.7513 20.89 82.0713 20.29C82.3913 19.69 82.5513 18.9966 82.5513 18.21C82.5513 17.3833 82.3046 16.73 81.8112 16.25C81.3179 15.77 80.6246 15.53 79.7313 15.53C79.0246 15.53 78.3912 15.7033 77.8312 16.05C77.2846 16.3833 76.8512 16.85 76.5312 17.45C76.2112 18.05 76.0513 18.7433 76.0513 19.53C76.0513 20.3566 76.2979 21.01 76.7912 21.49C77.2846 21.97 77.9779 22.21 78.8713 22.21ZM81.4912 24.21L81.9712 21.77L82.6512 18.93L82.9912 16.07L83.4912 13.53H85.9912L83.8713 24.21H81.4912Z" fill="#0C356A"/>
<path d="M67.6607 13.41C68.5807 13.41 69.3607 13.5966 70.0007 13.97C70.6407 14.3433 71.0874 14.8966 71.3407 15.63C71.6074 16.35 71.634 17.2366 71.4207 18.29L70.2407 24.21H67.7407L68.9007 18.35C69.074 17.4833 68.994 16.81 68.6607 16.33C68.3274 15.8366 67.7207 15.59 66.8407 15.59C65.9207 15.59 65.1607 15.8433 64.5607 16.35C63.9607 16.8566 63.554 17.63 63.3407 18.67L62.2207 24.21H59.7207L61.8407 13.53H64.2207L63.6207 16.57L63.2207 15.61C63.7274 14.85 64.3607 14.2966 65.1207 13.95C65.894 13.59 66.7407 13.41 67.6607 13.41Z" fill="#0C356A"/>
<path d="M43 24.21L52.1 10.21H54.68L58.16 24.21H55.58L52.66 11.55H53.7L45.78 24.21H43ZM46.56 20.97L47.66 18.93H55.2L55.54 20.97H46.56Z" fill="#0C356A"/>
</svg>
