<svg width="126" height="125" viewBox="0 0 126 125" fill="none" xmlns="http://www.w3.org/2000/svg">
<circle cx="62.8125" cy="62.5" r="61" stroke="#0C356A" stroke-width="3"/>
<path d="M63.3125 92C79.3288 92 92.3125 79.0163 92.3125 63C92.3125 46.9837 79.3288 34 63.3125 34C47.2962 34 34.3125 46.9837 34.3125 63C34.3125 79.0163 47.2962 92 63.3125 92Z" stroke="#6D86A6" stroke-width="4" stroke-linecap="round" stroke-linejoin="round"/>
<path d="M51.5775 37H54.3125C48.9792 53.8711 48.9792 72.1289 54.3125 89H51.5775" stroke="#6D86A6" stroke-width="4" stroke-linecap="round" stroke-linejoin="round"/>
<path d="M72.3125 37C77.6458 53.8711 77.6458 72.1289 72.3125 89" stroke="#6D86A6" stroke-width="4" stroke-linecap="round" stroke-linejoin="round"/>
<path d="M37.3125 74.735V72C54.1836 77.3333 72.4414 77.3333 89.3125 72V74.735" stroke="#6D86A6" stroke-width="4" stroke-linecap="round" stroke-linejoin="round"/>
<path d="M37.3125 54C54.1836 48.6667 72.4414 48.6667 89.3125 54" stroke="#6D86A6" stroke-width="4" stroke-linecap="round" stroke-linejoin="round"/>
</svg>
