<svg width="126" height="125" viewBox="0 0 126 125" fill="none" xmlns="http://www.w3.org/2000/svg">
<circle cx="62.8125" cy="62.5" r="61" stroke="#0C356A" stroke-width="3"/>
<path d="M39.9468 30L30.3125 39.6343L33.9295 43.2447L38.7434 38.4309L41.1503 40.8378L36.3364 45.6516L41.1503 50.4654L45.9641 45.6516L48.371 48.0585L43.5572 52.8723L48.371 57.6862L57.9987 48.0585L39.9468 30ZM84.2021 31.4827L75.1263 40.5585L84.754 50.1862L93.8298 41.1104C92.5256 39.2766 91.0928 37.509 89.4481 35.8644C87.8035 34.2197 86.0358 32.787 84.2021 31.4827ZM70.3125 45.3723L34.2021 81.4827L31.7952 93.5173L43.8298 91.1104L79.9402 55L70.3125 45.3723ZM77.254 67.3138L67.6263 76.9415L72.4402 81.7553L77.254 76.9415L79.6609 79.3484L74.8471 84.1622L79.6609 88.9761L84.4747 84.1622L86.8816 86.5691L82.0678 91.383L85.6782 95L95.3125 85.3657L77.254 67.3138Z" fill="#6D86A6"/>
</svg>
