<svg width="157" height="197" viewBox="0 0 157 197" fill="none" xmlns="http://www.w3.org/2000/svg">
<path d="M153.023 47.7264C153.552 47.8863 154.11 47.5875 154.27 47.0588L156.876 38.4445C157.036 37.9159 156.737 37.3577 156.208 37.1978C155.68 37.0378 155.122 37.3367 154.962 37.8653L152.645 45.5225L144.988 43.2057C144.459 43.0458 143.901 43.3446 143.741 43.8733C143.581 44.4019 143.88 44.9601 144.409 45.12L153.023 47.7264ZM5.24043 47.142C16.8127 18.3344 45.1521 2.63729 74.8958 2.01894C104.625 1.4009 135.628 15.8587 152.431 47.2413L154.194 46.2972C136.997 14.1798 105.25 -0.612542 74.8542 0.0193744C44.4729 0.65098 15.3123 16.7039 3.38457 46.3965L5.24043 47.142Z" fill="#6D86A6"/>
<path d="M4.6021 148.812C4.07349 148.652 3.51529 148.951 3.35535 149.48L0.748962 158.094C0.58902 158.623 0.887894 159.181 1.41652 159.341C1.94513 159.501 2.50331 159.202 2.66325 158.673L4.98006 151.016L12.6372 153.333C13.1658 153.493 13.724 153.194 13.884 152.665C14.0439 152.137 13.7451 151.579 13.2164 151.419L4.6021 148.812ZM152.385 149.397C140.812 178.204 112.473 193.901 82.7292 194.52C53.0005 195.138 21.9974 180.68 5.19408 149.297L3.43092 150.241C20.6276 182.359 52.3745 197.151 82.7708 196.519C113.152 195.888 142.313 179.835 154.24 150.142L152.385 149.397Z" fill="#6D86A6"/>
</svg>
