<svg width="264" height="191" viewBox="0 0 264 191" fill="none" xmlns="http://www.w3.org/2000/svg">
<rect width="34.467" height="6.60908" rx="3.30454" transform="matrix(-0.601033 -0.799224 0.914216 -0.405227 90.7158 39.9995)" fill="url(#paint0_linear_876_495)"/>
<rect x="125.323" y="31.8086" width="31.8084" height="6.97684" rx="3.48842" transform="rotate(-90 125.323 31.8086)" fill="url(#paint1_linear_876_495)"/>
<rect width="34.8564" height="6.5509" rx="3.27545" transform="matrix(0.638227 -0.769848 0.898472 0.43903 161.323 36.814)" fill="url(#paint2_linear_876_495)"/>
<rect width="34.4666" height="6.60906" rx="3.30453" transform="matrix(-0.601039 0.79922 0.914219 0.405221 90.7158 151)" fill="url(#paint3_linear_876_495)"/>
<rect width="31.8078" height="6.97684" rx="3.48842" transform="matrix(0 1 1 0 125.323 159.191)" fill="url(#paint4_linear_876_495)"/>
<rect width="34.8561" height="6.55088" rx="3.27544" transform="matrix(0.638233 0.769843 0.898475 -0.439024 161.323 154.186)" fill="url(#paint5_linear_876_495)"/>
<rect x="1" y="57" width="262" height="62" rx="4" fill="#0C356A"/>
<rect x="1" y="57" width="262" height="62" rx="4" stroke="#FBC665" stroke-width="2"/>
<path d="M42.72 81H45.32V95H42.72V81ZM35.48 95H32.88V81H35.48V95ZM42.92 89H35.26V86.78H42.92V89ZM48.8314 95V84.32H51.3314V95H48.8314ZM50.0914 82.56C49.6247 82.56 49.2381 82.4133 48.9314 82.12C48.6381 81.8267 48.4914 81.4733 48.4914 81.06C48.4914 80.6333 48.6381 80.28 48.9314 80C49.2381 79.7067 49.6247 79.56 50.0914 79.56C50.5581 79.56 50.9381 79.7 51.2314 79.98C51.5381 80.2467 51.6914 80.5867 51.6914 81C51.6914 81.44 51.5447 81.8133 51.2514 82.12C50.9581 82.4133 50.5714 82.56 50.0914 82.56ZM54.6127 95V84.32H56.9927V87.26L56.7127 86.4C57.0327 85.68 57.5327 85.1333 58.2127 84.76C58.906 84.3867 59.766 84.2 60.7927 84.2V86.58C60.686 86.5533 60.586 86.54 60.4927 86.54C60.3993 86.5267 60.306 86.52 60.2127 86.52C59.266 86.52 58.5127 86.8 57.9527 87.36C57.3927 87.9067 57.1127 88.7267 57.1127 89.82V95H54.6127ZM67.8358 95.14C66.6491 95.14 65.6091 94.9067 64.7158 94.44C63.8358 93.96 63.1491 93.3067 62.6558 92.48C62.1758 91.6533 61.9358 90.7133 61.9358 89.66C61.9358 88.5933 62.1691 87.6533 62.6358 86.84C63.1158 86.0133 63.7691 85.3667 64.5958 84.9C65.4358 84.4333 66.3891 84.2 67.4558 84.2C68.4958 84.2 69.4224 84.4267 70.2358 84.88C71.0491 85.3333 71.6891 85.9733 72.1558 86.8C72.6224 87.6267 72.8558 88.6 72.8558 89.72C72.8558 89.8267 72.8491 89.9467 72.8358 90.08C72.8358 90.2133 72.8291 90.34 72.8158 90.46H63.9158V88.8H71.4958L70.5158 89.32C70.5291 88.7067 70.4024 88.1667 70.1358 87.7C69.8691 87.2333 69.5024 86.8667 69.0358 86.6C68.5824 86.3333 68.0558 86.2 67.4558 86.2C66.8424 86.2 66.3024 86.3333 65.8358 86.6C65.3824 86.8667 65.0224 87.24 64.7558 87.72C64.5024 88.1867 64.3758 88.74 64.3758 89.38V89.78C64.3758 90.42 64.5224 90.9867 64.8158 91.48C65.1091 91.9733 65.5224 92.3533 66.0558 92.62C66.5891 92.8867 67.2024 93.02 67.8958 93.02C68.4958 93.02 69.0358 92.9267 69.5158 92.74C69.9958 92.5533 70.4224 92.26 70.7958 91.86L72.1358 93.4C71.6558 93.96 71.0491 94.3933 70.3158 94.7C69.5958 94.9933 68.7691 95.14 67.8358 95.14ZM84.8045 95.14C83.6312 95.14 82.7245 94.84 82.0845 94.24C81.4445 93.6267 81.1245 92.7267 81.1245 91.54V81.96H83.6245V91.48C83.6245 91.9867 83.7512 92.38 84.0045 92.66C84.2712 92.94 84.6379 93.08 85.1045 93.08C85.6645 93.08 86.1312 92.9333 86.5045 92.64L87.2045 94.42C86.9112 94.66 86.5512 94.84 86.1245 94.96C85.6979 95.08 85.2579 95.14 84.8045 95.14ZM79.3645 86.4V84.4H86.4845V86.4H79.3645ZM93.7095 95.14C92.6162 95.14 91.6429 94.9067 90.7895 94.44C89.9362 93.96 89.2629 93.3067 88.7695 92.48C88.2762 91.6533 88.0295 90.7133 88.0295 89.66C88.0295 88.5933 88.2762 87.6533 88.7695 86.84C89.2629 86.0133 89.9362 85.3667 90.7895 84.9C91.6429 84.4333 92.6162 84.2 93.7095 84.2C94.8162 84.2 95.7962 84.4333 96.6495 84.9C97.5162 85.3667 98.1895 86.0067 98.6695 86.82C99.1629 87.6333 99.4095 88.58 99.4095 89.66C99.4095 90.7133 99.1629 91.6533 98.6695 92.48C98.1895 93.3067 97.5162 93.96 96.6495 94.44C95.7962 94.9067 94.8162 95.14 93.7095 95.14ZM93.7095 93C94.3229 93 94.8695 92.8667 95.3495 92.6C95.8295 92.3333 96.2029 91.9467 96.4695 91.44C96.7495 90.9333 96.8895 90.34 96.8895 89.66C96.8895 88.9667 96.7495 88.3733 96.4695 87.88C96.2029 87.3733 95.8295 86.9867 95.3495 86.72C94.8695 86.4533 94.3295 86.32 93.7295 86.32C93.1162 86.32 92.5695 86.4533 92.0895 86.72C91.6229 86.9867 91.2495 87.3733 90.9695 87.88C90.6895 88.3733 90.5495 88.9667 90.5495 89.66C90.5495 90.34 90.6895 90.9333 90.9695 91.44C91.2495 91.9467 91.6229 92.3333 92.0895 92.6C92.5695 92.8667 93.1095 93 93.7095 93ZM107.72 95.14C106.853 95.14 106.06 94.94 105.34 94.54C104.633 94.14 104.067 93.54 103.64 92.74C103.227 91.9267 103.02 90.9 103.02 89.66C103.02 88.4067 103.22 87.38 103.62 86.58C104.033 85.78 104.593 85.1867 105.3 84.8C106.007 84.4 106.813 84.2 107.72 84.2C108.773 84.2 109.7 84.4267 110.5 84.88C111.313 85.3333 111.953 85.9667 112.42 86.78C112.9 87.5933 113.14 88.5533 113.14 89.66C113.14 90.7667 112.9 91.7333 112.42 92.56C111.953 93.3733 111.313 94.0067 110.5 94.46C109.7 94.9133 108.773 95.14 107.72 95.14ZM101.8 98.88V84.32H104.18V86.84L104.1 89.68L104.3 92.52V98.88H101.8ZM107.44 93C108.04 93 108.573 92.8667 109.04 92.6C109.52 92.3333 109.9 91.9467 110.18 91.44C110.46 90.9333 110.6 90.34 110.6 89.66C110.6 88.9667 110.46 88.3733 110.18 87.88C109.9 87.3733 109.52 86.9867 109.04 86.72C108.573 86.4533 108.04 86.32 107.44 86.32C106.84 86.32 106.3 86.4533 105.82 86.72C105.34 86.9867 104.96 87.3733 104.68 87.88C104.4 88.3733 104.26 88.9667 104.26 89.66C104.26 90.34 104.4 90.9333 104.68 91.44C104.96 91.9467 105.34 92.3333 105.82 92.6C106.3 92.8667 106.84 93 107.44 93ZM125.558 95.14C124.532 95.14 123.605 94.9133 122.778 94.46C121.965 93.9933 121.325 93.3533 120.858 92.54C120.392 91.7267 120.158 90.7667 120.158 89.66C120.158 88.5533 120.392 87.5933 120.858 86.78C121.325 85.9667 121.965 85.3333 122.778 84.88C123.605 84.4267 124.532 84.2 125.558 84.2C126.452 84.2 127.252 84.4 127.958 84.8C128.665 85.1867 129.225 85.78 129.638 86.58C130.052 87.38 130.258 88.4067 130.258 89.66C130.258 90.9 130.058 91.9267 129.658 92.74C129.258 93.54 128.705 94.14 127.998 94.54C127.292 94.94 126.478 95.14 125.558 95.14ZM125.858 93C126.458 93 126.992 92.8667 127.458 92.6C127.938 92.3333 128.318 91.9467 128.598 91.44C128.892 90.9333 129.038 90.34 129.038 89.66C129.038 88.9667 128.892 88.3733 128.598 87.88C128.318 87.3733 127.938 86.9867 127.458 86.72C126.992 86.4533 126.458 86.32 125.858 86.32C125.258 86.32 124.718 86.4533 124.238 86.72C123.772 86.9867 123.392 87.3733 123.098 87.88C122.818 88.3733 122.678 88.9667 122.678 89.66C122.678 90.34 122.818 90.9333 123.098 91.44C123.392 91.9467 123.772 92.3333 124.238 92.6C124.718 92.8667 125.258 93 125.858 93ZM129.098 95V92.48L129.198 89.64L128.998 86.8V80.16H131.478V95H129.098ZM139.789 95.14C138.602 95.14 137.562 94.9067 136.669 94.44C135.789 93.96 135.102 93.3067 134.609 92.48C134.129 91.6533 133.889 90.7133 133.889 89.66C133.889 88.5933 134.122 87.6533 134.589 86.84C135.069 86.0133 135.722 85.3667 136.549 84.9C137.389 84.4333 138.342 84.2 139.409 84.2C140.449 84.2 141.376 84.4267 142.189 84.88C143.002 85.3333 143.642 85.9733 144.109 86.8C144.576 87.6267 144.809 88.6 144.809 89.72C144.809 89.8267 144.802 89.9467 144.789 90.08C144.789 90.2133 144.782 90.34 144.769 90.46H135.869V88.8H143.449L142.469 89.32C142.482 88.7067 142.356 88.1667 142.089 87.7C141.822 87.2333 141.456 86.8667 140.989 86.6C140.536 86.3333 140.009 86.2 139.409 86.2C138.796 86.2 138.256 86.3333 137.789 86.6C137.336 86.8667 136.976 87.24 136.709 87.72C136.456 88.1867 136.329 88.74 136.329 89.38V89.78C136.329 90.42 136.476 90.9867 136.769 91.48C137.062 91.9733 137.476 92.3533 138.009 92.62C138.542 92.8867 139.156 93.02 139.849 93.02C140.449 93.02 140.989 92.9267 141.469 92.74C141.949 92.5533 142.376 92.26 142.749 91.86L144.089 93.4C143.609 93.96 143.002 94.3933 142.269 94.7C141.549 94.9933 140.722 95.14 139.789 95.14ZM149.855 95L145.275 84.32H147.875L151.815 93.74H150.535L154.615 84.32H157.015L152.435 95H149.855ZM163.305 95.14C162.118 95.14 161.078 94.9067 160.185 94.44C159.305 93.96 158.618 93.3067 158.125 92.48C157.645 91.6533 157.405 90.7133 157.405 89.66C157.405 88.5933 157.638 87.6533 158.105 86.84C158.585 86.0133 159.238 85.3667 160.065 84.9C160.905 84.4333 161.858 84.2 162.925 84.2C163.965 84.2 164.891 84.4267 165.705 84.88C166.518 85.3333 167.158 85.9733 167.625 86.8C168.091 87.6267 168.325 88.6 168.325 89.72C168.325 89.8267 168.318 89.9467 168.305 90.08C168.305 90.2133 168.298 90.34 168.285 90.46H159.385V88.8H166.965L165.985 89.32C165.998 88.7067 165.871 88.1667 165.605 87.7C165.338 87.2333 164.971 86.8667 164.505 86.6C164.051 86.3333 163.525 86.2 162.925 86.2C162.311 86.2 161.771 86.3333 161.305 86.6C160.851 86.8667 160.491 87.24 160.225 87.72C159.971 88.1867 159.845 88.74 159.845 89.38V89.78C159.845 90.42 159.991 90.9867 160.285 91.48C160.578 91.9733 160.991 92.3533 161.525 92.62C162.058 92.8867 162.671 93.02 163.365 93.02C163.965 93.02 164.505 92.9267 164.985 92.74C165.465 92.5533 165.891 92.26 166.265 91.86L167.605 93.4C167.125 93.96 166.518 94.3933 165.785 94.7C165.065 94.9933 164.238 95.14 163.305 95.14ZM170.726 95V80.16H173.226V95H170.726ZM181.307 95.14C180.214 95.14 179.241 94.9067 178.387 94.44C177.534 93.96 176.861 93.3067 176.367 92.48C175.874 91.6533 175.627 90.7133 175.627 89.66C175.627 88.5933 175.874 87.6533 176.367 86.84C176.861 86.0133 177.534 85.3667 178.387 84.9C179.241 84.4333 180.214 84.2 181.307 84.2C182.414 84.2 183.394 84.4333 184.247 84.9C185.114 85.3667 185.787 86.0067 186.267 86.82C186.761 87.6333 187.007 88.58 187.007 89.66C187.007 90.7133 186.761 91.6533 186.267 92.48C185.787 93.3067 185.114 93.96 184.247 94.44C183.394 94.9067 182.414 95.14 181.307 95.14ZM181.307 93C181.921 93 182.467 92.8667 182.947 92.6C183.427 92.3333 183.801 91.9467 184.067 91.44C184.347 90.9333 184.487 90.34 184.487 89.66C184.487 88.9667 184.347 88.3733 184.067 87.88C183.801 87.3733 183.427 86.9867 182.947 86.72C182.467 86.4533 181.927 86.32 181.327 86.32C180.714 86.32 180.167 86.4533 179.687 86.72C179.221 86.9867 178.847 87.3733 178.567 87.88C178.287 88.3733 178.147 88.9667 178.147 89.66C178.147 90.34 178.287 90.9333 178.567 91.44C178.847 91.9467 179.221 92.3333 179.687 92.6C180.167 92.8667 180.707 93 181.307 93ZM195.318 95.14C194.451 95.14 193.658 94.94 192.938 94.54C192.231 94.14 191.664 93.54 191.238 92.74C190.824 91.9267 190.618 90.9 190.618 89.66C190.618 88.4067 190.818 87.38 191.218 86.58C191.631 85.78 192.191 85.1867 192.898 84.8C193.604 84.4 194.411 84.2 195.318 84.2C196.371 84.2 197.298 84.4267 198.098 84.88C198.911 85.3333 199.551 85.9667 200.018 86.78C200.498 87.5933 200.738 88.5533 200.738 89.66C200.738 90.7667 200.498 91.7333 200.018 92.56C199.551 93.3733 198.911 94.0067 198.098 94.46C197.298 94.9133 196.371 95.14 195.318 95.14ZM189.398 98.88V84.32H191.778V86.84L191.698 89.68L191.898 92.52V98.88H189.398ZM195.038 93C195.638 93 196.171 92.8667 196.638 92.6C197.118 92.3333 197.498 91.9467 197.778 91.44C198.058 90.9333 198.198 90.34 198.198 89.66C198.198 88.9667 198.058 88.3733 197.778 87.88C197.498 87.3733 197.118 86.9867 196.638 86.72C196.171 86.4533 195.638 86.32 195.038 86.32C194.438 86.32 193.898 86.4533 193.418 86.72C192.938 86.9867 192.558 87.3733 192.278 87.88C191.998 88.3733 191.858 88.9667 191.858 89.66C191.858 90.34 191.998 90.9333 192.278 91.44C192.558 91.9467 192.938 92.3333 193.418 92.6C193.898 92.8667 194.438 93 195.038 93ZM208.129 95.14C206.942 95.14 205.902 94.9067 205.009 94.44C204.129 93.96 203.442 93.3067 202.949 92.48C202.469 91.6533 202.229 90.7133 202.229 89.66C202.229 88.5933 202.462 87.6533 202.929 86.84C203.409 86.0133 204.062 85.3667 204.889 84.9C205.729 84.4333 206.682 84.2 207.749 84.2C208.789 84.2 209.715 84.4267 210.529 84.88C211.342 85.3333 211.982 85.9733 212.449 86.8C212.915 87.6267 213.149 88.6 213.149 89.72C213.149 89.8267 213.142 89.9467 213.129 90.08C213.129 90.2133 213.122 90.34 213.109 90.46H204.209V88.8H211.789L210.809 89.32C210.822 88.7067 210.695 88.1667 210.429 87.7C210.162 87.2333 209.795 86.8667 209.329 86.6C208.875 86.3333 208.349 86.2 207.749 86.2C207.135 86.2 206.595 86.3333 206.129 86.6C205.675 86.8667 205.315 87.24 205.049 87.72C204.795 88.1867 204.669 88.74 204.669 89.38V89.78C204.669 90.42 204.815 90.9867 205.109 91.48C205.402 91.9733 205.815 92.3533 206.349 92.62C206.882 92.8867 207.495 93.02 208.189 93.02C208.789 93.02 209.329 92.9267 209.809 92.74C210.289 92.5533 210.715 92.26 211.089 91.86L212.429 93.4C211.949 93.96 211.342 94.3933 210.609 94.7C209.889 94.9933 209.062 95.14 208.129 95.14ZM215.55 95V84.32H217.93V87.26L217.65 86.4C217.97 85.68 218.47 85.1333 219.15 84.76C219.843 84.3867 220.703 84.2 221.73 84.2V86.58C221.623 86.5533 221.523 86.54 221.43 86.54C221.337 86.5267 221.243 86.52 221.15 86.52C220.203 86.52 219.45 86.8 218.89 87.36C218.33 87.9067 218.05 88.7267 218.05 89.82V95H215.55ZM227.249 95.14C226.355 95.14 225.495 95.0267 224.669 94.8C223.855 94.56 223.209 94.2733 222.729 93.94L223.689 92.04C224.169 92.3467 224.742 92.6 225.409 92.8C226.075 93 226.742 93.1 227.409 93.1C228.195 93.1 228.762 92.9933 229.109 92.78C229.469 92.5667 229.649 92.28 229.649 91.92C229.649 91.6267 229.529 91.4067 229.289 91.26C229.049 91.1 228.735 90.98 228.349 90.9C227.962 90.82 227.529 90.7467 227.049 90.68C226.582 90.6133 226.109 90.5267 225.629 90.42C225.162 90.3 224.735 90.1333 224.349 89.92C223.962 89.6933 223.649 89.3933 223.409 89.02C223.169 88.6467 223.049 88.1533 223.049 87.54C223.049 86.86 223.242 86.2733 223.629 85.78C224.015 85.2733 224.555 84.8867 225.249 84.62C225.955 84.34 226.789 84.2 227.749 84.2C228.469 84.2 229.195 84.28 229.929 84.44C230.662 84.6 231.269 84.8267 231.749 85.12L230.789 87.02C230.282 86.7133 229.769 86.5067 229.249 86.4C228.742 86.28 228.235 86.22 227.729 86.22C226.969 86.22 226.402 86.3333 226.029 86.56C225.669 86.7867 225.489 87.0733 225.489 87.42C225.489 87.74 225.609 87.98 225.849 88.14C226.089 88.3 226.402 88.4267 226.789 88.52C227.175 88.6133 227.602 88.6933 228.069 88.76C228.549 88.8133 229.022 88.9 229.489 89.02C229.955 89.14 230.382 89.3067 230.769 89.52C231.169 89.72 231.489 90.0067 231.729 90.38C231.969 90.7533 232.089 91.24 232.089 91.84C232.089 92.5067 231.889 93.0867 231.489 93.58C231.102 94.0733 230.549 94.46 229.829 94.74C229.109 95.0067 228.249 95.14 227.249 95.14Z" fill="#CCDFF9"/>
<defs>
<linearGradient id="paint0_linear_876_495" x1="34.467" y1="0" x2="32.0223" y2="12.7494" gradientUnits="userSpaceOnUse">
<stop stop-color="#FFEF5E"/>
<stop offset="1" stop-color="#F7936F"/>
</linearGradient>
<linearGradient id="paint1_linear_876_495" x1="157.132" y1="31.8086" x2="154.211" y2="45.1218" gradientUnits="userSpaceOnUse">
<stop stop-color="#FFEF5E"/>
<stop offset="1" stop-color="#F7936F"/>
</linearGradient>
<linearGradient id="paint2_linear_876_495" x1="34.8564" y1="0" x2="32.4781" y2="12.6548" gradientUnits="userSpaceOnUse">
<stop stop-color="#FFEF5E"/>
<stop offset="1" stop-color="#F7936F"/>
</linearGradient>
<linearGradient id="paint3_linear_876_495" x1="34.4666" y1="0" x2="32.0219" y2="12.7493" gradientUnits="userSpaceOnUse">
<stop stop-color="#FFEF5E"/>
<stop offset="1" stop-color="#F7936F"/>
</linearGradient>
<linearGradient id="paint4_linear_876_495" x1="31.8078" y1="0" x2="28.8877" y2="13.3132" gradientUnits="userSpaceOnUse">
<stop stop-color="#FFEF5E"/>
<stop offset="1" stop-color="#F7936F"/>
</linearGradient>
<linearGradient id="paint5_linear_876_495" x1="34.8561" y1="0" x2="32.4777" y2="12.6548" gradientUnits="userSpaceOnUse">
<stop stop-color="#FFEF5E"/>
<stop offset="1" stop-color="#F7936F"/>
</linearGradient>
</defs>
</svg>
