<svg width="11" height="11" viewBox="0 0 11 11" fill="none" xmlns="http://www.w3.org/2000/svg">
<g clip-path="url(#clip0_1520_51)">
<path d="M10.9971 10.9998V10.9993H10.9998V6.96507C10.9998 4.99148 10.575 3.47119 8.26771 3.47119C7.15854 3.47119 6.41421 4.07986 6.11033 4.6569H6.07825V3.65544H3.89062V10.9993H6.16854V7.3629C6.16854 6.40544 6.35004 5.47961 7.53575 5.47961C8.70404 5.47961 8.72146 6.57228 8.72146 7.42432V10.9998H10.9971Z" fill="#1A202C"/>
<path d="M0.181641 3.65625H2.46231V11.0001H0.181641V3.65625Z" fill="#1A202C"/>
<path d="M1.32092 0C0.591708 0 0 0.591708 0 1.32092C0 2.05013 0.591708 2.65421 1.32092 2.65421C2.05013 2.65421 2.64183 2.05013 2.64183 1.32092C2.64138 0.591708 2.04967 0 1.32092 0V0Z" fill="#1A202C"/>
</g>
<defs>
<clipPath id="clip0_1520_51">
<rect width="11" height="11" fill="white"/>
</clipPath>
</defs>
</svg>
