<svg width="89" height="88" viewBox="0 0 89 88" fill="none" xmlns="http://www.w3.org/2000/svg">
<path fill-rule="evenodd" clip-rule="evenodd" d="M27.9997 18.3334C39.1374 18.3334 48.1663 27.3623 48.1663 38.5C48.1663 40.594 47.8472 42.6135 47.2549 44.5124L67.4238 64.6815C71.0807 68.3383 71.0807 74.2672 67.4238 77.924C63.767 81.5809 57.8381 81.5809 54.1813 77.924L34.0122 57.7552C32.1132 58.3475 30.0937 58.6667 27.9997 58.6667C16.8619 58.6667 7.83301 49.6378 7.83301 38.5C7.83301 36.3507 8.16926 34.2798 8.79202 32.3373L18.3315 41.8611L26.9661 38.9853C27.1508 38.7619 27.3477 38.5451 27.5569 38.336L27.8358 38.0571C28.0443 37.8485 28.2604 37.6521 28.4832 37.4679L31.3608 28.8434L21.8101 19.301C23.7604 18.6727 25.8404 18.3334 27.9997 18.3334ZM73.833 25.6667V47.6667H66.4997V25.6667H73.833ZM70.1663 10.0834C72.6976 10.0834 74.7497 12.1354 74.7497 14.6667C74.7497 17.198 72.6976 19.25 70.1663 19.25C67.635 19.25 65.583 17.198 65.583 14.6667C65.583 12.1354 67.635 10.0834 70.1663 10.0834Z" fill="#6D86A6"/>
</svg>
