<svg width="89" height="88" viewBox="0 0 89 88" fill="none" xmlns="http://www.w3.org/2000/svg">
<path fill-rule="evenodd" clip-rule="evenodd" d="M84.9997 28.155C85.015 27.0262 84.4705 25.89 83.3621 25.2371L49.6387 5.37226C46.5404 3.54724 42.7033 3.54227 39.6001 5.35929L5.66221 25.2327C4.54882 25.8847 4.00189 27.0235 4.01732 28.155H4V61.7385H4.01845C4.04887 62.8414 4.61402 63.9307 5.71018 64.5486L39.7441 83.7232C42.7739 85.4299 46.4702 85.4254 49.4951 83.7109L83.3144 64.5445C84.4057 63.9257 84.9682 62.8387 84.9988 61.7385L84.9997 28.155ZM11.9402 30.7024C11.1285 30.2424 10.0992 30.5304 9.64125 31.3457C9.18324 32.161 9.46998 33.1949 10.2817 33.6549L38.8967 49.8718C42.4621 51.8922 46.8221 51.8818 50.3776 49.8438L78.6286 33.6508C79.4381 33.1868 79.7198 32.1516 79.2577 31.3386C78.796 30.5255 77.765 30.2425 76.9555 30.7065L48.7045 46.8995C46.1809 48.3463 43.0862 48.3535 40.5554 46.9193L11.9402 30.7024Z" fill="#6D86A6"/>
</svg>
