<svg width="130" height="129" viewBox="0 0 130 129" fill="none" xmlns="http://www.w3.org/2000/svg">
<path d="M55.0734 102.898C53.2846 102.898 51.8232 101.436 51.8232 99.6474C51.8232 97.8585 53.2846 96.3972 55.0734 96.3972C56.8623 96.3972 58.3236 97.8585 58.3236 99.6474C58.3362 101.436 56.8623 102.898 55.0734 102.898Z" fill="#6D86A6"/>
<path d="M76.1488 92.8069C76.1488 93.4494 75.6197 93.9785 74.9772 93.9785H35.1687C34.5262 93.9785 33.9971 93.4494 33.9971 92.8069V32.8043C33.9971 32.1618 34.5262 31.6327 35.1687 31.6327H74.9646C75.6071 31.6327 76.1362 32.1618 76.1362 32.8043V92.8069H76.1488Z" fill="#E6E6E6"/>
<path d="M38.5198 44.6208C36.8065 44.6208 35.4082 46.0192 35.4082 47.7325C35.4082 49.4457 36.8065 50.8441 38.5198 50.8441C40.2331 50.8441 41.6314 49.4457 41.6314 47.7325C41.6314 46.0192 40.2331 44.6208 38.5198 44.6208ZM101.785 72.7892C98.0815 72.7892 95.0581 75.8126 95.0581 79.5164C95.0581 83.2201 98.0815 86.2435 101.785 86.2435C105.489 86.2435 108.512 83.2201 108.512 79.5164C108.512 75.8126 105.489 72.7892 101.785 72.7892Z" fill="white"/>
<path d="M101.785 70.2698C96.6827 70.2698 92.5381 74.4144 92.5381 79.5165C92.5381 84.6185 96.6827 88.7631 101.785 88.7631C106.887 88.7631 111.031 84.6185 111.031 79.5165C111.031 74.4144 106.887 70.2698 101.785 70.2698ZM95.0576 79.5165C95.0576 75.8127 98.0811 72.7893 101.785 72.7893C105.488 72.7893 108.512 75.8127 108.512 79.5165C108.512 83.2202 105.488 86.2436 101.785 86.2436C98.0685 86.2436 95.0576 83.2202 95.0576 79.5165Z" fill="#6D86A6"/>
<path d="M46.5692 68.7833C45.1331 68.7833 43.9741 69.9422 43.9741 71.3784C43.9741 72.8145 45.1331 73.9735 46.5692 73.9735C48.0054 73.9735 49.1644 72.8145 49.1644 71.3784C49.1644 69.9422 47.9928 68.7833 46.5692 68.7833ZM16.6624 53.074C14.9491 53.074 13.5508 54.4723 13.5508 56.1856C13.5508 57.8989 14.9491 59.2972 16.6624 59.2972C18.3757 59.2972 19.774 57.8989 19.774 56.1856C19.774 54.4723 18.3757 53.074 16.6624 53.074Z" fill="white"/>
<path d="M24.6124 52.2298C24.3856 51.5748 23.6802 51.222 23.0125 51.4362L20.6567 52.2298C19.6363 51.1968 18.2254 50.5543 16.6507 50.5543C13.5517 50.5543 11.0195 53.0739 11.0195 56.1855C11.0195 59.2971 13.5391 61.8167 16.6507 61.8167C19.7623 61.8167 22.2818 59.2971 22.2818 56.1855C22.2818 55.5808 22.1811 54.9887 22.0047 54.447L23.8188 53.8423C24.4738 53.603 24.8266 52.8975 24.6124 52.2298ZM16.6633 59.2845C14.95 59.2845 13.5517 57.8862 13.5517 56.1729C13.5517 54.4596 14.95 53.0613 16.6633 53.0613C18.3766 53.0613 19.7749 54.4596 19.7749 56.1729C19.7749 57.8862 18.3766 59.2845 16.6633 59.2845ZM41.9972 53.8423L41.5562 52.4566C43.1058 51.4488 44.1388 49.7103 44.1388 47.7325C44.1388 44.6334 41.6192 42.1013 38.5076 42.1013C35.396 42.1013 32.8765 44.6208 32.8765 47.7325C32.8765 50.8441 35.396 53.3636 38.5076 53.3636C38.7344 53.3636 38.9611 53.351 39.1753 53.3258L39.5784 54.6108C39.7422 55.1525 40.2461 55.4926 40.7752 55.4926C40.9012 55.4926 41.0271 55.4674 41.1531 55.4296C41.846 55.2155 42.2113 54.4974 41.9972 53.8423ZM39.6666 50.6173C39.6162 50.6299 39.5658 50.6551 39.528 50.6677C39.2131 50.7811 38.8729 50.8441 38.5202 50.8441C36.8069 50.8441 35.4086 49.4457 35.4086 47.7325C35.4086 46.0192 36.8069 44.6208 38.5202 44.6208C40.2335 44.6208 41.6318 46.0192 41.6318 47.7325C41.6318 49.03 40.813 50.1512 39.6666 50.6173ZM43.0806 62.6859C43.2065 62.6859 43.3325 62.6607 43.4585 62.6229C44.1262 62.4087 44.4915 61.7033 44.2773 61.0482L43.5215 58.642C43.3073 57.9744 42.6019 57.609 41.9468 57.8232C41.2791 58.0374 40.9138 58.7428 41.1279 59.3979L41.8838 61.8041C42.0476 62.3458 42.5389 62.6859 43.0806 62.6859ZM55.6782 63.6433L54.6704 64.4118C54.1161 64.8275 54.0027 65.6211 54.4311 66.1754C54.683 66.503 55.0609 66.6667 55.4389 66.6667C55.7034 66.6667 55.968 66.5786 56.1947 66.4148L57.2025 65.6463C57.7568 65.2306 57.8702 64.437 57.4419 63.8827C57.0262 63.3284 56.2325 63.2276 55.6782 63.6433ZM67.4696 56.2611C67.0539 55.7068 66.2603 55.5934 65.706 56.0217L64.6981 56.7902C64.1438 57.2059 64.0305 57.9996 64.4588 58.5539C64.7107 58.8814 65.0887 59.0452 65.4666 59.0452C65.7312 59.0452 65.9957 58.957 66.2225 58.7932L67.2303 58.0248C67.7846 57.609 67.8979 56.8154 67.4696 56.2611ZM60.6921 59.8262L59.6843 60.5947C59.13 61.0104 59.0166 61.8041 59.4449 62.3583C59.6969 62.6859 60.0748 62.8497 60.4527 62.8497C60.7173 62.8497 60.9818 62.7615 61.2086 62.5977L62.2164 61.8292C62.7707 61.4135 62.8841 60.6199 62.4558 60.0656C62.04 59.5239 61.2464 59.4105 60.6921 59.8262ZM50.6644 67.4604L50.2108 67.8005C49.2786 66.8557 47.9937 66.2636 46.5701 66.2636C46.356 66.2636 46.1544 66.2762 45.9528 66.3014L45.8143 65.8479C45.6001 65.1802 44.8946 64.8149 44.227 65.0291C43.5593 65.2432 43.1939 65.9487 43.4081 66.6164L43.5971 67.2336C42.2995 68.1659 41.4555 69.6776 41.4555 71.3909C41.4555 74.2127 43.7482 76.5055 46.5701 76.5055C49.392 76.5055 51.6848 74.2127 51.6848 71.3909C51.6848 70.9122 51.6218 70.446 51.4958 70.0051L52.1887 69.476C52.743 69.0603 52.8563 68.2666 52.428 67.7124C52.0123 67.1455 51.2187 67.0321 50.6644 67.4604ZM43.975 71.3783C43.975 69.9421 45.134 68.7832 46.5701 68.7832C48.0063 68.7832 49.1652 69.9421 49.1652 71.3783C49.1652 72.8144 48.0063 73.9734 46.5701 73.9734C45.134 73.9734 43.975 72.8144 43.975 71.3783Z" fill="#6D86A6"/>
<path d="M109.319 52.2551H84.5142V27.0598C84.5142 21.7939 80.231 17.5107 74.9651 17.5107H35.1691C29.9033 17.5107 25.6201 21.7939 25.6201 27.0598V100.806C25.6201 106.072 29.9033 110.355 35.1691 110.355H109.306C114.572 110.355 118.855 106.123 118.855 100.92V61.7033C118.868 56.4879 114.585 52.2551 109.319 52.2551ZM74.9777 105.316H35.1691C32.6874 105.316 30.6592 103.301 30.6592 100.806V51.5244L30.9741 51.4236C31.6292 51.1969 31.9819 50.4914 31.7678 49.8237C31.604 49.3324 31.1505 49.0049 30.6718 48.9671V27.0724C30.6718 24.5906 32.6874 22.5624 35.1817 22.5624H74.9777C77.4595 22.5624 79.4877 24.578 79.4877 27.0724V54.7998C79.2483 54.825 78.9964 54.9258 78.7948 55.0896C78.2657 55.5431 78.2027 56.3367 78.6563 56.8658L79.4751 57.8232L79.4877 57.8358V100.819C79.4751 103.301 77.4595 105.316 74.9777 105.316ZM113.829 100.92C113.829 103.351 111.813 105.316 109.319 105.316H83.393C84.111 103.968 84.5268 102.444 84.5268 100.806V63.0513C84.8165 63.0513 85.1063 62.9505 85.333 62.7489C85.8621 62.2954 85.9251 61.5018 85.4716 60.9727L84.6527 60.0152C84.615 59.9648 84.5646 59.9271 84.5142 59.8767V57.2941H109.319C111.801 57.2941 113.829 59.272 113.829 61.6907V100.92Z" fill="#6D86A6"/>
<path d="M92.8278 69.602C92.3743 69.0729 91.5806 69.01 91.0515 69.4635C90.5224 69.917 90.4594 70.7106 90.9129 71.2397L91.7318 72.1972C91.9837 72.4869 92.3365 72.6381 92.6892 72.6381C92.9789 72.6381 93.2687 72.5373 93.508 72.3357C94.0371 71.8822 94.1001 71.0886 93.6466 70.5595L92.8278 69.602ZM88.7335 64.8149C88.28 64.2858 87.4864 64.2228 86.9573 64.6764C86.4282 65.1299 86.3652 65.9235 86.8187 66.4526L87.6375 67.41C87.8895 67.6998 88.2422 67.851 88.595 67.851C88.8847 67.851 89.1744 67.7502 89.4138 67.5486C89.9429 67.0951 90.0059 66.3014 89.5524 65.7723L88.7335 64.8149Z" fill="#6D86A6"/>
<path d="M62.6943 28.0928H47.4512C46.7583 28.0928 46.1914 27.5259 46.1914 26.833C46.1914 26.1401 46.7583 25.5732 47.4512 25.5732H62.6943C63.3872 25.5732 63.9541 26.1401 63.9541 26.833C63.9541 27.5259 63.3872 28.0928 62.6943 28.0928Z" fill="#06F3FF"/>
<path d="M75.7462 40.3251C71.5134 40.3251 68.0742 43.7642 68.0742 47.997C68.0742 52.2299 71.5134 55.669 75.7462 55.669C79.979 55.669 83.4182 52.2299 83.4182 47.997C83.4182 43.7642 79.979 40.3251 75.7462 40.3251Z" fill="white"/>
<path d="M75.7462 37.8055C70.1276 37.8055 65.5547 42.3785 65.5547 47.997C65.5547 53.6156 70.1276 58.1885 75.7462 58.1885C81.3647 58.1885 85.9377 53.6156 85.9377 47.997C85.9377 42.3785 81.3647 37.8055 75.7462 37.8055ZM68.0868 47.997C68.0868 43.7642 71.526 40.3251 75.7588 40.3251C79.9916 40.3251 83.4308 43.7642 83.4308 47.997C83.4308 52.2299 79.9916 55.669 75.7588 55.669C71.526 55.669 68.0868 52.2299 68.0868 47.997Z" fill="#6D86A6"/>
</svg>
