<svg width="130" height="27" viewBox="0 0 130 27" fill="none" xmlns="http://www.w3.org/2000/svg">
<path d="M122.979 6.26318C124.239 6.26318 125.379 6.52318 126.399 7.04318C127.419 7.54318 128.219 8.32318 128.799 9.38318C129.399 10.4432 129.699 11.8132 129.699 13.4932V22.7932H123.999V14.4232C123.999 13.2632 123.759 12.4232 123.279 11.9032C122.819 11.3632 122.169 11.0932 121.329 11.0932C120.729 11.0932 120.179 11.2332 119.679 11.5132C119.179 11.7732 118.789 12.1832 118.509 12.7432C118.229 13.3032 118.089 14.0332 118.089 14.9332V22.7932H112.389V6.53318H117.819V11.1532L116.769 9.80318C117.389 8.62318 118.239 7.74318 119.319 7.16318C120.399 6.56318 121.619 6.26318 122.979 6.26318Z" fill="#0C356A"/>
<path d="M99.1465 22.7932V6.53318H104.576V11.2732L103.766 9.92318C104.246 8.70318 105.026 7.79318 106.106 7.19318C107.186 6.57318 108.496 6.26318 110.036 6.26318V11.3932C109.776 11.3532 109.546 11.3332 109.346 11.3332C109.166 11.3132 108.966 11.3032 108.746 11.3032C107.586 11.3032 106.646 11.6232 105.926 12.2632C105.206 12.8832 104.846 13.9032 104.846 15.3232V22.7932H99.1465Z" fill="#0C356A"/>
<path d="M88.4179 23.0632C86.4979 23.0632 84.8179 22.7032 83.3779 21.9832C81.9579 21.2432 80.8479 20.2432 80.0479 18.9832C79.2679 17.7032 78.8779 16.2532 78.8779 14.6332C78.8779 13.0132 79.2579 11.5732 80.0179 10.3132C80.7979 9.03318 81.8679 8.04318 83.2279 7.34318C84.5879 6.62318 86.1179 6.26318 87.8179 6.26318C89.4179 6.26318 90.8779 6.59318 92.1979 7.25318C93.5179 7.89318 94.5679 8.84318 95.3479 10.1032C96.1279 11.3632 96.5179 12.8932 96.5179 14.6932C96.5179 14.8932 96.5079 15.1232 96.4879 15.3832C96.4679 15.6432 96.4479 15.8832 96.4279 16.1032H83.5579V13.1032H93.3979L91.2379 13.9432C91.2579 13.2032 91.1179 12.5632 90.8179 12.0232C90.5379 11.4832 90.1379 11.0632 89.6179 10.7632C89.1179 10.4632 88.5279 10.3132 87.8479 10.3132C87.1679 10.3132 86.5679 10.4632 86.0479 10.7632C85.5479 11.0632 85.1579 11.4932 84.8779 12.0532C84.5979 12.5932 84.4579 13.2332 84.4579 13.9732V14.8432C84.4579 15.6432 84.6179 16.3332 84.9379 16.9132C85.2779 17.4932 85.7579 17.9432 86.3779 18.2632C86.9979 18.5632 87.7379 18.7132 88.5979 18.7132C89.3979 18.7132 90.0779 18.6032 90.6379 18.3832C91.2179 18.1432 91.7879 17.7832 92.3479 17.3032L95.3479 20.4232C94.5679 21.2832 93.6079 21.9432 92.4679 22.4032C91.3279 22.8432 89.9779 23.0632 88.4179 23.0632Z" fill="#0C356A"/>
<path d="M66.0315 23.0632C64.5515 23.0632 63.2015 22.7232 61.9815 22.0432C60.7815 21.3432 59.8215 20.3732 59.1015 19.1332C58.3815 17.8732 58.0215 16.3732 58.0215 14.6332C58.0215 12.9132 58.3815 11.4332 59.1015 10.1932C59.8215 8.9332 60.7815 7.9632 61.9815 7.2832C63.2015 6.6032 64.5515 6.2632 66.0315 6.2632C67.4315 6.2632 68.6115 6.5632 69.5715 7.1632C70.5515 7.7632 71.2915 8.6832 71.7915 9.9232C72.2915 11.1632 72.5415 12.7332 72.5415 14.6332C72.5415 16.5732 72.3015 18.1632 71.8215 19.4032C71.3415 20.6432 70.6215 21.5632 69.6615 22.1632C68.7015 22.7632 67.4915 23.0632 66.0315 23.0632ZM67.2315 18.5332C67.8715 18.5332 68.4415 18.3832 68.9415 18.0832C69.4615 17.7832 69.8715 17.3432 70.1715 16.7632C70.4715 16.1632 70.6215 15.4532 70.6215 14.6332C70.6215 13.8132 70.4715 13.1232 70.1715 12.5632C69.8715 11.9832 69.4615 11.5432 68.9415 11.2432C68.4415 10.9432 67.8715 10.7932 67.2315 10.7932C66.5715 10.7932 65.9815 10.9432 65.4615 11.2432C64.9615 11.5432 64.5615 11.9832 64.2615 12.5632C63.9615 13.1232 63.8115 13.8132 63.8115 14.6332C63.8115 15.4532 63.9615 16.1632 64.2615 16.7632C64.5615 17.3432 64.9615 17.7832 65.4615 18.0832C65.9815 18.3832 66.5715 18.5332 67.2315 18.5332ZM70.8015 22.7932V20.0032L70.8315 14.6332L70.5315 9.2632V0.533203H76.2315V22.7932H70.8015Z" fill="#0C356A"/>
<path d="M47.1302 23.0632C45.3502 23.0632 43.7702 22.7032 42.3902 21.9832C41.0102 21.2632 39.9202 20.2732 39.1202 19.0132C38.3402 17.7332 37.9502 16.2732 37.9502 14.6332C37.9502 12.9932 38.3402 11.5432 39.1202 10.2832C39.9202 9.02318 41.0102 8.04318 42.3902 7.34318C43.7702 6.62318 45.3502 6.26318 47.1302 6.26318C48.9102 6.26318 50.4902 6.62318 51.8702 7.34318C53.2702 8.04318 54.3602 9.02318 55.1402 10.2832C55.9202 11.5432 56.3102 12.9932 56.3102 14.6332C56.3102 16.2732 55.9202 17.7332 55.1402 19.0132C54.3602 20.2732 53.2702 21.2632 51.8702 21.9832C50.4902 22.7032 48.9102 23.0632 47.1302 23.0632ZM47.1302 18.5332C47.7902 18.5332 48.3702 18.3832 48.8702 18.0832C49.3902 17.7832 49.8002 17.3432 50.1002 16.7632C50.4002 16.1632 50.5502 15.4532 50.5502 14.6332C50.5502 13.8132 50.4002 13.1232 50.1002 12.5632C49.8002 11.9832 49.3902 11.5432 48.8702 11.2432C48.3702 10.9432 47.7902 10.7932 47.1302 10.7932C46.4902 10.7932 45.9102 10.9432 45.3902 11.2432C44.8902 11.5432 44.4802 11.9832 44.1602 12.5632C43.8602 13.1232 43.7102 13.8132 43.7102 14.6332C43.7102 15.4532 43.8602 16.1632 44.1602 16.7632C44.4802 17.3432 44.8902 17.7832 45.3902 18.0832C45.9102 18.3832 46.4902 18.5332 47.1302 18.5332Z" fill="#0C356A"/>
<path d="M10.6172 22.7932V18.7932V1.79321H15.5072L24.2072 16.0732H21.6272L30.0872 1.79321H34.9772L35.0372 22.7932H29.5772L29.5172 10.1032H30.4472L24.1172 20.7232H21.4772L14.9672 10.1032H16.1072V22.7932H10.6172Z" fill="#0C356A"/>
<rect x="5.51758" y="17.7932" width="6" height="5" fill="#0C356A"/>
<path d="M0.237406 20.1485C0.204017 20.1085 0.206942 20.0495 0.244129 20.013L5.35276 14.9986C5.41605 14.9365 5.5229 14.9814 5.52281 15.0701L5.51128 26.1914C5.51119 26.2848 5.39439 26.3271 5.33451 26.2554L0.237406 20.1485Z" fill="#0C356A"/>
</svg>
