<svg width="128" height="25" viewBox="0 0 128 25" fill="none" xmlns="http://www.w3.org/2000/svg">
<path d="M117.628 12.6465C117.628 11.4746 117.862 10.373 118.331 9.3418C118.792 8.32617 119.421 7.52148 120.218 6.92773C121.007 6.3418 121.878 6.04883 122.831 6.04883C123.737 6.04883 124.593 6.31445 125.397 6.8457C125.983 7.16602 126.507 7.70898 126.968 8.47461C127.296 9.02148 127.479 9.61523 127.519 10.2559C127.511 11.6387 126.89 12.7715 125.655 13.6543C124.608 14.4043 123.37 14.7793 121.94 14.7793C121.925 14.7793 121.366 14.748 120.265 14.6855C120.46 15.4902 120.722 16.1426 121.05 16.6426C121.604 17.4863 122.331 17.9082 123.229 17.9082H123.253C124.214 17.9082 125.03 17.4941 125.702 16.666C125.976 16.3301 126.222 15.8691 126.44 15.2832L127.8 15.6816C127.769 15.8066 127.741 15.8926 127.718 15.9395C127.062 17.1426 126.433 17.9473 125.831 18.3535C124.854 18.9473 123.925 19.2441 123.042 19.2441H123.007C121.937 19.2441 121.007 18.9551 120.218 18.377C119.429 17.7988 118.8 16.9941 118.331 15.9629C117.862 14.9316 117.628 13.8262 117.628 12.6465ZM125.315 10.2441C125.315 9.36133 125.081 8.66602 124.612 8.1582C124.206 7.71289 123.644 7.45898 122.925 7.39648H122.901C122.042 7.39648 121.354 7.81445 120.839 8.65039C120.448 9.29102 120.206 10.0879 120.112 11.041C120.058 11.5957 120.03 12.1973 120.03 12.8457C120.03 13.0645 120.046 13.3184 120.077 13.6074C120.788 13.623 121.499 13.6309 122.21 13.6309C122.577 13.6309 122.839 13.6113 122.995 13.5723C123.784 13.377 124.331 13.0488 124.636 12.5879C125.089 11.8301 125.315 11.0488 125.315 10.2441Z" fill="#0C356A"/>
<path d="M102.511 6.3418H109.284C107.792 7.00586 107.046 7.51758 107.046 7.87695C107.046 7.9082 107.054 7.93945 107.069 7.9707L107.104 8.07617L110.245 15.0957L113.292 8.07617L113.327 7.95898C113.343 7.91992 113.351 7.87695 113.351 7.83008C113.312 7.36133 112.565 6.86523 111.112 6.3418H116.808C115.847 6.5293 115.116 7.07617 114.616 7.98242L114.581 8.07617L109.718 19.4316L104.737 8.07617L104.726 8.04102L104.69 7.93555C104.19 7.06055 103.464 6.5293 102.511 6.3418Z" fill="#0C356A"/>
<path d="M95.7373 7.68945C96.2998 7.43945 97.4951 6.99414 99.3232 6.35352C99.6123 6.25195 99.9326 6.15039 100.284 6.04883V17.2285L100.308 17.334C100.729 18.2012 101.464 18.7441 102.511 18.9629H95.7373C96.7061 18.7754 97.4404 18.2285 97.9404 17.3223L97.9639 17.2285V8.65039C97.9639 8.45508 97.9131 8.31836 97.8115 8.24023C97.6475 8.10742 97.3857 8.00586 97.0264 7.93555C96.2607 7.77148 95.8311 7.68945 95.7373 7.68945ZM98.0459 3.61133C97.749 3.30664 97.6006 2.93945 97.6006 2.50977C97.6006 2.08008 97.749 1.7168 98.0459 1.41992C98.3428 1.11523 98.7021 0.962891 99.124 0.962891C99.5459 0.962891 99.9053 1.11523 100.202 1.41992C100.499 1.7168 100.647 2.08008 100.647 2.50977C100.647 2.93945 100.499 3.30664 100.202 3.61133C99.9053 3.9082 99.5459 4.05664 99.124 4.05664C98.7021 4.05664 98.3428 3.9082 98.0459 3.61133Z" fill="#0C356A"/>
<path d="M84.5342 15.8926C84.5342 15.4629 84.6826 15.0996 84.9795 14.8027C85.2764 14.498 85.6357 14.3457 86.0576 14.3457C86.4795 14.3457 86.8389 14.498 87.1357 14.8027C87.4326 15.0996 87.5811 15.4629 87.5811 15.8926C87.5811 16.291 87.4326 16.6582 87.1357 16.9941C87.0732 17.0645 87.0029 17.1309 86.9248 17.1934L87.0654 17.3105C87.7686 17.8418 88.585 18.1074 89.5146 18.1074C89.5225 18.1074 89.5342 18.1074 89.5498 18.1074C90.292 18.1074 90.9053 17.9121 91.3896 17.5215C91.8115 17.1777 92.0381 16.5801 92.0693 15.7285V15.5059C92.0303 14.6699 91.6357 14.127 90.8857 13.877L87.6982 12.9395C86.5029 12.5879 85.7529 11.7402 85.4482 10.3965C85.417 10.1621 85.4014 9.93164 85.4014 9.70508C85.4014 8.93164 85.71 8.16602 86.3271 7.4082C87.0693 6.50195 88.1045 6.04883 89.4326 6.04883C90.6748 6.04883 91.7334 6.46289 92.6084 7.29102C92.8975 7.56445 93.1201 7.8457 93.2764 8.13477C93.3936 8.35352 93.4521 8.60352 93.4521 8.88477C93.4521 9.30664 93.3037 9.66992 93.0068 9.97461C92.71 10.2793 92.3506 10.4316 91.9287 10.4316C91.5068 10.4316 91.1475 10.2793 90.8506 9.97461C90.5537 9.66992 90.4053 9.30273 90.4053 8.87305C90.4053 8.44336 90.5537 8.08008 90.8506 7.7832L91.0732 7.63086C90.5967 7.36523 90.0537 7.23242 89.4443 7.23242H89.4092C88.8857 7.27148 88.4131 7.4668 87.9912 7.81836C87.6475 8.17773 87.4756 8.68945 87.4756 9.35352C87.4756 9.4082 87.4756 9.46289 87.4756 9.51758C87.4756 10.1738 87.8076 10.6426 88.4717 10.9238L91.249 11.6504C92.0615 11.9473 92.667 12.2676 93.0654 12.6113C93.8154 13.2598 94.1982 14.2324 94.2139 15.5293C94.1357 16.4902 93.7061 17.377 92.9248 18.1895C92.2295 18.9004 91.085 19.2559 89.4912 19.2559C88.0928 19.2559 86.8662 18.8027 85.8115 17.8965C85.2646 17.4199 84.9053 17.0137 84.7334 16.6777C84.6865 16.584 84.6514 16.5059 84.6279 16.4434C84.5654 16.2793 84.5342 16.0957 84.5342 15.8926Z" fill="#0C356A"/>
<path d="M68.8545 18.9629C69.8232 18.7754 70.5576 18.2285 71.0576 17.3223L71.0811 17.2285V8.65039C71.0811 8.45508 71.0303 8.31836 70.9287 8.24023C70.7725 8.11523 70.5342 8.01758 70.2139 7.94727C69.5029 7.79102 69.0498 7.70508 68.8545 7.68945C69.1201 7.57227 70.3154 7.12695 72.4404 6.35352C72.7686 6.23633 73.0889 6.13477 73.4014 6.04883V6.95117L73.4365 6.92773C74.2178 6.3418 75.0889 6.04883 76.0498 6.04883C76.9951 6.04883 77.8662 6.3418 78.6631 6.92773C79.4521 7.50586 80.0811 8.31055 80.5498 9.3418C81.0186 10.373 81.2529 11.4785 81.2529 12.6582V12.7285V16.6543C81.2529 16.8496 81.3037 16.9863 81.4053 17.0645C81.5615 17.1895 81.7998 17.2871 82.1201 17.3574C82.8311 17.5137 83.2842 17.5996 83.4795 17.6152C83.042 17.8105 81.8467 18.2559 79.8936 18.9512C79.5654 19.0684 79.2451 19.1699 78.9326 19.2559V12.7051V12.6582C78.9326 10.877 78.5928 9.55664 77.9131 8.69727C77.2725 7.88477 76.5029 7.47852 75.6045 7.47852C75.5889 7.47852 75.5732 7.47852 75.5576 7.47852C74.5654 7.47852 73.8467 7.83789 73.4014 8.55664V17.2285L73.4248 17.334C73.8467 18.2012 74.5811 18.7441 75.6279 18.9629H68.8545Z" fill="#0C356A"/>
<path d="M59.2451 12.6113C59.2451 14.3535 59.4404 15.6504 59.8311 16.502C60.3311 17.5879 61.0537 18.1309 61.999 18.1309C62.8428 18.1309 63.5107 17.5176 64.0029 16.291C64.4092 15.2754 64.6201 14.0801 64.6357 12.7051V12.6582C64.6357 11.0332 64.3232 9.7207 63.6982 8.7207C63.1826 7.89258 62.5771 7.47852 61.8818 7.47852C61.874 7.47852 61.8623 7.47852 61.8467 7.47852C61.1045 7.47852 60.4873 7.90039 59.9951 8.74414C59.4951 9.5957 59.2451 10.8848 59.2451 12.6113ZM56.6904 12.7988C56.6904 11.5098 56.9248 10.3574 57.3936 9.3418C57.8701 8.31055 58.499 7.50586 59.2803 6.92773C60.0693 6.3418 60.9404 6.04883 61.8936 6.04883C62.8389 6.04883 63.71 6.3418 64.5068 6.92773C65.2959 7.50586 65.9248 8.31055 66.3936 9.3418C66.8623 10.373 67.0967 11.4785 67.0967 12.6582C67.0967 13.8457 66.8623 14.9473 66.3936 15.9629C65.9248 16.9785 65.2959 17.7832 64.5068 18.377C63.7256 18.9629 62.8545 19.2559 61.8936 19.2559C60.9795 19.2559 60.1084 18.9629 59.2803 18.377C58.4834 17.8145 57.8506 17.0293 57.3818 16.0215C56.9209 15.0293 56.6904 13.9551 56.6904 12.7988Z" fill="#0C356A"/>
<path d="M51.5576 12.6934C51.5576 10.9355 51.3623 9.63867 50.9717 8.80273C50.4639 7.7168 49.71 7.17383 48.71 7.17383C47.9521 7.17383 47.2686 7.47461 46.6592 8.07617L46.542 8.25195C46.4326 8.37695 46.3779 8.63867 46.3779 9.03711V15.9512V16.0566C46.3936 16.3066 46.5068 16.5879 46.7178 16.9004C47.1318 17.5176 47.749 17.8262 48.5693 17.8262C48.585 17.8262 48.5967 17.8262 48.6045 17.8262C49.5576 17.8262 50.292 17.4043 50.8076 16.5605C51.3076 15.709 51.5576 14.4199 51.5576 12.6934ZM41.8311 24.0371C42.7998 23.8496 43.5342 23.3027 44.0342 22.3965L44.0576 22.3027V9.03711C44.0576 8.84961 44.0068 8.71289 43.9053 8.62695C43.7646 8.50195 43.5264 8.4043 43.1904 8.33398C42.4873 8.17773 42.0342 8.0918 41.8311 8.07617C42.3389 7.84961 43.5342 7.4043 45.417 6.74023C46.7295 6.2793 47.8623 6.04883 48.8154 6.04883C48.8467 6.04883 48.8779 6.04883 48.9092 6.04883C49.8232 6.04883 50.6943 6.3418 51.5225 6.92773C52.3193 7.49023 52.9521 8.27539 53.4209 9.2832C53.8818 10.2754 54.1123 11.3496 54.1123 12.5059C54.1123 13.7949 53.8779 14.9473 53.4092 15.9629C52.9326 16.9941 52.3037 17.7988 51.5225 18.377C50.7334 18.9629 49.8623 19.2559 48.9092 19.2559C47.9951 19.2559 47.1514 18.9824 46.3779 18.4355V22.3027L46.4014 22.4082C46.8232 23.2754 47.5576 23.8184 48.6045 24.0371H41.8311Z" fill="#0C356A"/>
<path d="M30.6279 15.8926C30.6279 15.4629 30.7764 15.0996 31.0732 14.8027C31.3701 14.498 31.7295 14.3457 32.1514 14.3457C32.5732 14.3457 32.9326 14.498 33.2295 14.8027C33.5264 15.0996 33.6748 15.4629 33.6748 15.8926C33.6748 16.291 33.5264 16.6582 33.2295 16.9941C33.167 17.0645 33.0967 17.1309 33.0186 17.1934L33.1592 17.3105C33.8623 17.8418 34.6787 18.1074 35.6084 18.1074C35.6162 18.1074 35.6279 18.1074 35.6436 18.1074C36.3857 18.1074 36.999 17.9121 37.4834 17.5215C37.9053 17.1777 38.1318 16.5801 38.1631 15.7285V15.5059C38.124 14.6699 37.7295 14.127 36.9795 13.877L33.792 12.9395C32.5967 12.5879 31.8467 11.7402 31.542 10.3965C31.5107 10.1621 31.4951 9.93164 31.4951 9.70508C31.4951 8.93164 31.8037 8.16602 32.4209 7.4082C33.1631 6.50195 34.1982 6.04883 35.5264 6.04883C36.7686 6.04883 37.8271 6.46289 38.7021 7.29102C38.9912 7.56445 39.2139 7.8457 39.3701 8.13477C39.4873 8.35352 39.5459 8.60352 39.5459 8.88477C39.5459 9.30664 39.3975 9.66992 39.1006 9.97461C38.8037 10.2793 38.4443 10.4316 38.0225 10.4316C37.6006 10.4316 37.2412 10.2793 36.9443 9.97461C36.6475 9.66992 36.499 9.30273 36.499 8.87305C36.499 8.44336 36.6475 8.08008 36.9443 7.7832L37.167 7.63086C36.6904 7.36523 36.1475 7.23242 35.5381 7.23242H35.5029C34.9795 7.27148 34.5068 7.4668 34.085 7.81836C33.7412 8.17773 33.5693 8.68945 33.5693 9.35352C33.5693 9.4082 33.5693 9.46289 33.5693 9.51758C33.5693 10.1738 33.9014 10.6426 34.5654 10.9238L37.3428 11.6504C38.1553 11.9473 38.7607 12.2676 39.1592 12.6113C39.9092 13.2598 40.292 14.2324 40.3076 15.5293C40.2295 16.4902 39.7998 17.377 39.0186 18.1895C38.3232 18.9004 37.1787 19.2559 35.585 19.2559C34.1865 19.2559 32.96 18.8027 31.9053 17.8965C31.3584 17.4199 30.999 17.0137 30.8271 16.6777C30.7803 16.584 30.7451 16.5059 30.7217 16.4434C30.6592 16.2793 30.6279 16.0957 30.6279 15.8926Z" fill="#0C356A"/>
<path d="M18.1123 12.6465C18.1123 11.4746 18.3467 10.373 18.8154 9.3418C19.2764 8.32617 19.9053 7.52148 20.7021 6.92773C21.4912 6.3418 22.3623 6.04883 23.3154 6.04883C24.2217 6.04883 25.0771 6.31445 25.8818 6.8457C26.4678 7.16602 26.9912 7.70898 27.4521 8.47461C27.7803 9.02148 27.9639 9.61523 28.0029 10.2559C27.9951 11.6387 27.374 12.7715 26.1396 13.6543C25.0928 14.4043 23.8545 14.7793 22.4248 14.7793C22.4092 14.7793 21.8506 14.748 20.749 14.6855C20.9443 15.4902 21.2061 16.1426 21.5342 16.6426C22.0889 17.4863 22.8154 17.9082 23.7139 17.9082H23.7373C24.6982 17.9082 25.5146 17.4941 26.1865 16.666C26.46 16.3301 26.7061 15.8691 26.9248 15.2832L28.2842 15.6816C28.2529 15.8066 28.2256 15.8926 28.2021 15.9395C27.5459 17.1426 26.917 17.9473 26.3154 18.3535C25.3389 18.9473 24.4092 19.2441 23.5264 19.2441H23.4912C22.4209 19.2441 21.4912 18.9551 20.7021 18.377C19.9131 17.7988 19.2842 16.9941 18.8154 15.9629C18.3467 14.9316 18.1123 13.8262 18.1123 12.6465ZM25.7998 10.2441C25.7998 9.36133 25.5654 8.66602 25.0967 8.1582C24.6904 7.71289 24.1279 7.45898 23.4092 7.39648H23.3857C22.5264 7.39648 21.8389 7.81445 21.3232 8.65039C20.9326 9.29102 20.6904 10.0879 20.5967 11.041C20.542 11.5957 20.5146 12.1973 20.5146 12.8457C20.5146 13.0645 20.5303 13.3184 20.5615 13.6074C21.2725 13.623 21.9834 13.6309 22.6943 13.6309C23.0615 13.6309 23.3232 13.6113 23.4795 13.5723C24.2686 13.377 24.8154 13.0488 25.1201 12.5879C25.5732 11.8301 25.7998 11.0488 25.7998 10.2441Z" fill="#0C356A"/>
<path d="M7.76465 2.18164C7.15527 2.18164 6.55762 2.32617 5.97168 2.61523C5.7373 2.75586 5.5498 2.94336 5.40918 3.17773C5.2998 3.36523 5.24512 3.62695 5.24512 3.96289V9.79883C5.63574 10.5254 6.26855 11.0254 7.14355 11.2988C7.51855 11.4082 7.88184 11.4629 8.2334 11.4629C8.27246 11.4629 8.31543 11.4629 8.3623 11.4629C8.39355 11.4629 8.5498 11.4551 8.83105 11.4395C9.57324 11.3613 10.1982 11.1191 10.7061 10.7129C11.6279 9.9707 12.0889 8.68945 12.0889 6.86914C12.0889 5.93164 11.9014 5.08789 11.5264 4.33789C11.1982 3.68164 10.6982 3.14258 10.0264 2.7207C9.44824 2.36133 8.69434 2.18164 7.76465 2.18164ZM0.698242 18.9629C1.66699 18.7754 2.40137 18.2285 2.90137 17.3223L2.9248 17.2285V3.96289C2.9248 3.77539 2.87402 3.63867 2.77246 3.55273C2.63184 3.43555 2.39355 3.33789 2.05762 3.25977C1.37012 3.10352 0.916992 3.01758 0.698242 3.00195C1.2373 2.75977 2.43262 2.31445 4.28418 1.66602C5.59668 1.20508 6.72949 0.974609 7.68262 0.974609C7.71387 0.974609 7.74512 0.974609 7.77637 0.974609C8.94043 0.974609 9.91699 1.13477 10.7061 1.45508C11.5029 1.76758 12.167 2.16602 12.6982 2.65039C13.4248 3.31445 13.9404 4.01758 14.2451 4.75977C14.4482 5.18164 14.5732 5.88477 14.6201 6.86914C14.5811 8.40039 14.1357 9.61914 13.2842 10.5254C12.6357 11.2129 11.9092 11.7363 11.1045 12.0957C11.3936 12.2598 11.6357 12.459 11.8311 12.6934C12.2295 13.1777 12.9326 14.5527 13.9404 16.8184L14.1865 17.334C14.5225 17.9824 14.9287 18.3066 15.4053 18.3066C15.4209 18.3066 15.4365 18.3066 15.4521 18.3066C15.874 18.3066 16.2646 18.1582 16.624 17.8613C17.0146 17.5176 17.3154 17.2676 17.5264 17.1113C17.4248 18.0957 17.0967 18.877 16.542 19.4551C15.9326 20.0879 15.3037 20.4043 14.6553 20.4043C14.6396 20.4043 14.624 20.4043 14.6084 20.4043C13.8662 20.4043 13.2217 20.0371 12.6748 19.3027C12.5576 19.1465 12.3232 18.7402 11.9717 18.084L10.2959 14.5332C9.77246 13.5176 9.21387 12.8887 8.62012 12.6465L8.5498 12.623C8.37793 12.623 8.19824 12.6191 8.01074 12.6113C6.88574 12.5645 5.96387 12.2363 5.24512 11.627V17.2285L5.26855 17.334C5.69043 18.2012 6.4248 18.7441 7.47168 18.9629H0.698242Z" fill="#0C356A"/>
</svg>
