<svg width="92" height="25" viewBox="0 0 92 25" fill="none" xmlns="http://www.w3.org/2000/svg">
<path d="M83.5111 18.596L84.9271 15.86L87.0631 6.35602H91.3591L84.9991 24.212H80.7751L83.5111 18.596ZM78.6631 6.35602H82.9591L84.9751 15.212H86.0071L85.8871 18.812H82.9831L78.6631 6.35602Z" fill="#0C356A"/>
<path d="M75.2607 19.124C74.4447 19.124 73.7727 19.012 73.2447 18.788C72.7327 18.548 72.3326 18.212 72.0446 17.78C71.7566 17.348 71.5566 16.828 71.4446 16.22C71.3326 15.612 71.2766 14.916 71.2766 14.132V9.26003H69.7646L69.9566 6.45203L71.4687 6.35603L71.7086 3.50003L75.3086 2.78003V6.35603H78.0446L77.8526 9.26003H75.3086V13.772C75.3086 14.188 75.3566 14.548 75.4526 14.852C75.5646 15.14 75.7407 15.364 75.9807 15.524C76.2207 15.684 76.5566 15.764 76.9886 15.764C77.1646 15.764 77.3326 15.764 77.4926 15.764C77.6686 15.748 77.8286 15.724 77.9726 15.692L77.9967 18.74C77.7407 18.804 77.3406 18.884 76.7966 18.98C76.2686 19.076 75.7567 19.124 75.2607 19.124Z" fill="#0C356A"/>
<path d="M64.0218 6.35602L68.0778 6.26002V18.836H64.0218V6.35602ZM66.0378 5.08402C65.4138 5.08402 64.8778 4.89202 64.4298 4.50803C63.9818 4.10802 63.7578 3.58802 63.7578 2.94802C63.7578 2.30802 63.9818 1.78802 64.4298 1.38802C64.8778 0.988024 65.4138 0.788025 66.0378 0.788025C66.6618 0.788025 67.1978 0.988024 67.6458 1.38802C68.0938 1.78802 68.3178 2.30802 68.3178 2.94802C68.3178 3.58802 68.0938 4.10802 67.6458 4.50803C67.1978 4.89202 66.6618 5.08402 66.0378 5.08402Z" fill="#0C356A"/>
<path d="M54.2478 18.836V10.412C54.2478 9.51604 54.2398 8.75604 54.2238 8.13204C54.2078 7.50804 54.1918 6.91603 54.1758 6.35603L57.6318 6.26003L57.9678 8.25204H58.0398C58.5038 7.58004 59.0798 7.03604 59.7678 6.62004C60.4558 6.20404 61.2798 6.03603 62.2398 6.11603V9.66803C61.4878 9.57203 60.7518 9.59604 60.0318 9.74004C59.3278 9.86803 58.7518 10.196 58.3038 10.724V18.836H54.2478Z" fill="#0C356A"/>
<path d="M43.9164 19.124C42.8284 19.124 41.9724 18.884 41.3484 18.404C40.7404 17.908 40.3084 17.244 40.0524 16.412C39.8124 15.58 39.6924 14.668 39.6924 13.676V6.35602H43.7484V13.628C43.7484 14.364 43.8844 14.932 44.1564 15.332C44.4284 15.716 44.8844 15.908 45.5244 15.908C45.8284 15.908 46.1004 15.86 46.3404 15.764C46.5964 15.668 46.8204 15.548 47.0124 15.404C47.2204 15.244 47.4044 15.076 47.5644 14.9V6.35602H51.6204V14.708C51.6204 15.492 51.6204 16.228 51.6204 16.916C51.6364 17.604 51.6604 18.244 51.6924 18.836H48.8844L47.9964 17.252H47.9004C47.6444 17.54 47.3164 17.828 46.9164 18.116C46.5164 18.404 46.0604 18.644 45.5484 18.836C45.0364 19.028 44.4924 19.124 43.9164 19.124Z" fill="#0C356A"/>
<path d="M33.9516 19.124C32.6396 19.124 31.4876 18.876 30.4956 18.38C29.5036 17.868 28.7276 17.132 28.1676 16.172C27.6236 15.212 27.3516 14.036 27.3516 12.644C27.3516 11.396 27.6156 10.276 28.1436 9.28404C28.6876 8.29204 29.4796 7.51604 30.5196 6.95604C31.5596 6.38004 32.8476 6.09204 34.3836 6.09204C34.8796 6.09204 35.4316 6.14004 36.0396 6.23604C36.6476 6.31604 37.2076 6.46004 37.7196 6.66804L37.3116 9.62004C36.9916 9.50804 36.5836 9.40404 36.0876 9.30804C35.6076 9.21204 35.1116 9.16404 34.5996 9.16404C33.9916 9.16404 33.4476 9.29204 32.9676 9.54804C32.5036 9.78804 32.1436 10.156 31.8876 10.652C31.6316 11.148 31.5036 11.78 31.5036 12.548C31.5036 13.364 31.6556 14.028 31.9596 14.54C32.2796 15.036 32.6876 15.404 33.1836 15.644C33.6956 15.884 34.2316 16.004 34.7916 16.004C35.3036 16.004 35.7996 15.956 36.2796 15.86C36.7596 15.764 37.1756 15.668 37.5276 15.572L37.8396 18.476C37.3916 18.652 36.7996 18.804 36.0636 18.932C35.3276 19.06 34.6236 19.124 33.9516 19.124Z" fill="#0C356A"/>
<path d="M20.8026 19.1241C19.3786 19.1241 18.1786 18.8761 17.2026 18.3801C16.2426 17.8681 15.5066 17.1401 14.9946 16.1961C14.4826 15.2361 14.2266 14.0841 14.2266 12.7401C14.2266 11.8761 14.3546 11.0521 14.6106 10.2681C14.8666 9.46805 15.2506 8.75605 15.7626 8.13205C16.2746 7.49205 16.9226 6.98805 17.7066 6.62005C18.5066 6.25205 19.4426 6.06805 20.5146 6.06805C21.6186 6.06805 22.5466 6.26805 23.2986 6.66805C24.0506 7.06805 24.6346 7.62005 25.0506 8.32405C25.4666 9.02805 25.7306 9.83605 25.8426 10.7481C25.9706 11.6441 25.9546 12.5961 25.7946 13.6041H16.3626L18.5466 11.9961C18.1946 12.9721 18.0986 13.7641 18.2586 14.3721C18.4186 14.9801 18.7786 15.4281 19.3386 15.7161C19.8986 16.0041 20.5706 16.1481 21.3546 16.1481C21.9466 16.1481 22.5626 16.0921 23.2026 15.9801C23.8586 15.8521 24.4346 15.7161 24.9306 15.5721L25.3386 18.3321C24.6506 18.5881 23.9066 18.7801 23.1066 18.9081C22.3066 19.0521 21.5386 19.1241 20.8026 19.1241ZM16.3866 11.4921H22.2426C22.2586 11.4121 22.2666 11.3481 22.2666 11.3001C22.2666 11.2521 22.2666 11.2121 22.2666 11.1801C22.2666 10.7641 22.2106 10.3881 22.0986 10.0521C21.9866 9.70005 21.7946 9.41205 21.5226 9.18805C21.2506 8.96405 20.8746 8.85205 20.3946 8.85205C19.8346 8.85205 19.3786 9.02805 19.0266 9.38005C18.6746 9.71605 18.4346 10.1561 18.3066 10.7001C18.1946 11.2441 18.1946 11.8121 18.3066 12.4041L16.3866 11.4921Z" fill="#0C356A"/>
<path d="M5.9598 19.1241C4.9198 19.1241 3.9358 19.0201 3.0078 18.812C2.0798 18.588 1.3438 18.372 0.799805 18.164L1.4478 14.996C2.0558 15.156 2.7438 15.3321 3.5118 15.524C4.2958 15.7001 5.05581 15.788 5.79181 15.788C6.35181 15.788 6.8318 15.7161 7.2318 15.5721C7.6478 15.4281 7.9678 15.22 8.1918 14.948C8.4158 14.676 8.5278 14.3561 8.5278 13.9881C8.5278 13.5561 8.3838 13.1961 8.0958 12.9081C7.8078 12.6201 7.4238 12.3561 6.9438 12.1161C6.4638 11.8761 5.93581 11.636 5.35981 11.396C4.84781 11.156 4.3358 10.9 3.8238 10.628C3.3118 10.34 2.8398 10.0041 2.4078 9.62005C1.9758 9.22005 1.6318 8.74805 1.3758 8.20405C1.1198 7.66005 0.991805 7.01205 0.991805 6.26005C0.991805 5.15605 1.2718 4.22005 1.8318 3.45205C2.3918 2.68405 3.1678 2.10005 4.15981 1.70005C5.1518 1.28405 6.2718 1.07605 7.5198 1.07605C8.36781 1.07605 9.18381 1.16405 9.9678 1.34005C10.7518 1.50005 11.4238 1.70005 11.9838 1.94005L11.4078 5.10805C10.9758 4.94805 10.4078 4.79605 9.7038 4.65205C9.0158 4.49205 8.3358 4.41205 7.66381 4.41205C6.8638 4.41205 6.2318 4.56405 5.76781 4.86805C5.31981 5.15605 5.0958 5.54805 5.0958 6.04405C5.0958 6.44405 5.2398 6.78805 5.5278 7.07605C5.8318 7.34805 6.2238 7.60405 6.7038 7.84405C7.1838 8.06805 7.69581 8.30805 8.23981 8.56405C8.76781 8.78805 9.2878 9.04405 9.7998 9.33205C10.3278 9.60405 10.8078 9.94005 11.2398 10.34C11.6718 10.724 12.0158 11.188 12.2718 11.732C12.5438 12.276 12.6798 12.924 12.6798 13.6761C12.6798 14.7801 12.4078 15.74 11.8638 16.556C11.3358 17.372 10.5678 18.004 9.5598 18.452C8.55181 18.9 7.3518 19.1241 5.9598 19.1241Z" fill="#0C356A"/>
</svg>
