<svg width="111" height="57" viewBox="0 0 111 57" fill="none" xmlns="http://www.w3.org/2000/svg">
<path d="M110.261 51.088C110.261 51.392 110.157 51.656 109.949 51.88C109.741 52.088 109.485 52.192 109.181 52.192H105.821C105.085 52.192 104.453 51.936 103.925 51.424C103.413 50.896 103.157 50.256 103.157 49.504V37.072C103.157 36.752 103.261 36.488 103.469 36.28C103.677 36.072 103.933 35.968 104.237 35.968H104.909C105.213 35.968 105.469 36.072 105.677 36.28C105.901 36.488 106.013 36.752 106.013 37.072V39.472C106.013 39.664 106.117 39.76 106.325 39.76H109.181C109.485 39.76 109.741 39.872 109.949 40.096C110.157 40.304 110.261 40.568 110.261 40.888V41.536C110.261 41.808 110.157 42.064 109.949 42.304C109.709 42.512 109.453 42.616 109.181 42.616H106.325C106.117 42.616 106.013 42.728 106.013 42.952V49.048C106.013 49.256 106.117 49.36 106.325 49.36H109.181C109.485 49.36 109.741 49.464 109.949 49.672C110.157 49.88 110.261 50.144 110.261 50.464V51.088Z" fill="#0C356A"/>
<path d="M101.18 51.088C101.18 51.392 101.076 51.656 100.868 51.88C100.66 52.088 100.404 52.192 100.1 52.192H99.4282C99.1242 52.192 98.8682 52.088 98.6602 51.88C98.4522 51.656 98.3482 51.392 98.3482 51.088V42.952C98.3482 42.856 98.3082 42.776 98.2282 42.712C98.1642 42.648 98.0922 42.616 98.0122 42.616H95.6842C95.6042 42.616 95.5242 42.648 95.4442 42.712C95.3802 42.776 95.3482 42.856 95.3482 42.952V51.088C95.3482 51.392 95.2442 51.656 95.0362 51.88C94.8282 52.088 94.5722 52.192 94.2682 52.192H93.5962C93.2922 52.192 93.0282 52.088 92.8042 51.88C92.5962 51.656 92.4922 51.392 92.4922 51.088V42.448C92.4922 41.952 92.6122 41.504 92.8522 41.104C93.1082 40.688 93.4362 40.36 93.8362 40.12C94.2362 39.88 94.6842 39.76 95.1802 39.76H98.5162C99.0122 39.76 99.4602 39.88 99.8602 40.12C100.26 40.36 100.58 40.688 100.82 41.104C101.06 41.504 101.18 41.952 101.18 42.448V51.088Z" fill="#0C356A"/>
<path d="M90.5396 45.064C90.5396 45.544 90.4196 45.992 90.1796 46.408C89.9396 46.808 89.6196 47.136 89.2196 47.392C88.8196 47.632 88.3716 47.752 87.8756 47.752H85.0436C84.9636 47.752 84.8836 47.784 84.8036 47.848C84.7396 47.896 84.7076 47.96 84.7076 48.04V49.048C84.7076 49.128 84.7396 49.2 84.8036 49.264C84.8836 49.328 84.9636 49.36 85.0436 49.36H87.8756C88.1796 49.36 88.4356 49.464 88.6436 49.672C88.8676 49.88 88.9796 50.144 88.9796 50.464V51.088C88.9796 51.392 88.8676 51.656 88.6436 51.88C88.4356 52.088 88.1796 52.192 87.8756 52.192H84.5396C83.8036 52.192 83.1716 51.936 82.6436 51.424C82.1156 50.896 81.8516 50.256 81.8516 49.504V42.448C81.8516 41.952 81.9716 41.504 82.2116 41.104C82.4676 40.704 82.7956 40.384 83.1956 40.144C83.5956 39.888 84.0436 39.76 84.5396 39.76H87.8756C88.3716 39.76 88.8196 39.888 89.2196 40.144C89.6196 40.384 89.9396 40.704 90.1796 41.104C90.4196 41.504 90.5396 41.952 90.5396 42.448V45.064ZM87.7076 44.584V42.952C87.7076 42.856 87.6676 42.776 87.5876 42.712C87.5236 42.648 87.4516 42.616 87.3716 42.616H85.0436C84.9636 42.616 84.8836 42.648 84.8036 42.712C84.7396 42.776 84.7076 42.856 84.7076 42.952V44.584C84.7076 44.648 84.7396 44.712 84.8036 44.776C84.8836 44.84 84.9636 44.872 85.0436 44.872H87.3716C87.4516 44.872 87.5236 44.84 87.5876 44.776C87.6676 44.712 87.7076 44.648 87.7076 44.584Z" fill="#0C356A"/>
<path d="M79.9224 51.088C79.9224 51.392 79.8104 51.656 79.5864 51.88C79.3784 52.088 79.1224 52.192 78.8184 52.192H78.1464C77.8424 52.192 77.5784 52.088 77.3544 51.88C77.1464 51.656 77.0424 51.392 77.0424 51.088V42.952C77.0424 42.728 76.9384 42.616 76.7304 42.616H75.7944C75.6024 42.616 75.5064 42.728 75.5064 42.952V51.088C75.5064 51.392 75.3944 51.656 75.1704 51.88C74.9624 52.088 74.7064 52.192 74.4024 52.192H73.7544C73.4504 52.192 73.1864 52.088 72.9624 51.88C72.7544 51.656 72.6504 51.392 72.6504 51.088V42.952C72.6504 42.728 72.5544 42.616 72.3624 42.616H71.4264C71.2184 42.616 71.1144 42.728 71.1144 42.952V51.088C71.1144 51.392 71.0024 51.656 70.7784 51.88C70.5704 52.088 70.3144 52.192 70.0104 52.192H69.3384C69.0344 52.192 68.7704 52.088 68.5464 51.88C68.3384 51.656 68.2344 51.392 68.2344 51.088V42.448C68.2344 41.952 68.3544 41.504 68.5944 41.104C68.8504 40.688 69.1784 40.36 69.5784 40.12C69.9784 39.88 70.4264 39.76 70.9224 39.76H72.8184C73.1704 39.76 73.4904 39.832 73.7784 39.976C73.9704 40.024 74.1704 40.024 74.3784 39.976C74.6664 39.832 74.9864 39.76 75.3384 39.76H77.2344C77.7304 39.76 78.1784 39.88 78.5784 40.12C78.9784 40.36 79.2984 40.688 79.5384 41.104C79.7944 41.504 79.9224 41.952 79.9224 42.448V51.088Z" fill="#0C356A"/>
<path d="M66.2818 45.064C66.2818 45.544 66.1618 45.992 65.9218 46.408C65.6818 46.808 65.3618 47.136 64.9618 47.392C64.5618 47.632 64.1138 47.752 63.6178 47.752H60.7858C60.7058 47.752 60.6257 47.784 60.5457 47.848C60.4817 47.896 60.4498 47.96 60.4498 48.04V49.048C60.4498 49.128 60.4817 49.2 60.5457 49.264C60.6257 49.328 60.7058 49.36 60.7858 49.36H63.6178C63.9218 49.36 64.1777 49.464 64.3857 49.672C64.6097 49.88 64.7217 50.144 64.7217 50.464V51.088C64.7217 51.392 64.6097 51.656 64.3857 51.88C64.1777 52.088 63.9218 52.192 63.6178 52.192H60.2817C59.5457 52.192 58.9137 51.936 58.3857 51.424C57.8577 50.896 57.5938 50.256 57.5938 49.504V42.448C57.5938 41.952 57.7138 41.504 57.9538 41.104C58.2098 40.704 58.5378 40.384 58.9378 40.144C59.3378 39.888 59.7857 39.76 60.2817 39.76H63.6178C64.1138 39.76 64.5618 39.888 64.9618 40.144C65.3618 40.384 65.6818 40.704 65.9218 41.104C66.1618 41.504 66.2818 41.952 66.2818 42.448V45.064ZM63.4498 44.584V42.952C63.4498 42.856 63.4097 42.776 63.3298 42.712C63.2657 42.648 63.1938 42.616 63.1138 42.616H60.7858C60.7058 42.616 60.6257 42.648 60.5457 42.712C60.4817 42.776 60.4498 42.856 60.4498 42.952V44.584C60.4498 44.648 60.4817 44.712 60.5457 44.776C60.6257 44.84 60.7058 44.872 60.7858 44.872H63.1138C63.1938 44.872 63.2657 44.84 63.3298 44.776C63.4097 44.712 63.4498 44.648 63.4498 44.584Z" fill="#0C356A"/>
<path d="M55.6411 53.344C55.6411 53.824 55.5211 54.264 55.2811 54.664C55.0411 55.08 54.7211 55.408 54.3211 55.648C53.9211 55.904 53.4731 56.032 52.9771 56.032H49.6411C49.3371 56.032 49.0731 55.92 48.8491 55.696C48.6411 55.488 48.5371 55.232 48.5371 54.928V54.256C48.5371 53.952 48.6411 53.696 48.8491 53.488C49.0731 53.28 49.3371 53.176 49.6411 53.176H52.4731C52.5531 53.176 52.6251 53.144 52.6891 53.08C52.7691 53.016 52.8091 52.944 52.8091 52.864V52.504C52.8091 52.424 52.7691 52.352 52.6891 52.288C52.6251 52.224 52.5531 52.192 52.4731 52.192H49.6411C48.9051 52.192 48.2731 51.936 47.7451 51.424C47.2171 50.896 46.9531 50.256 46.9531 49.504V42.448C46.9531 41.952 47.0731 41.504 47.3131 41.104C47.5691 40.688 47.8971 40.36 48.2971 40.12C48.6971 39.88 49.1451 39.76 49.6411 39.76H52.9771C53.4731 39.76 53.9211 39.88 54.3211 40.12C54.7211 40.36 55.0411 40.688 55.2811 41.104C55.5211 41.504 55.6411 41.952 55.6411 42.448V53.344ZM52.8091 49.048V42.952C52.8091 42.856 52.7691 42.776 52.6891 42.712C52.6251 42.648 52.5531 42.616 52.4731 42.616H50.1451C50.0651 42.616 49.9851 42.648 49.9051 42.712C49.8411 42.776 49.8091 42.856 49.8091 42.952V49.048C49.8091 49.128 49.8411 49.2 49.9051 49.264C49.9851 49.328 50.0651 49.36 50.1451 49.36H52.4731C52.5531 49.36 52.6251 49.328 52.6891 49.264C52.7691 49.2 52.8091 49.128 52.8091 49.048Z" fill="#0C356A"/>
<path d="M45.0005 49.504C45.0005 50.256 44.7365 50.896 44.2085 51.424C43.6965 51.936 43.0725 52.192 42.3365 52.192H39.0005C38.2645 52.192 37.6325 51.936 37.1045 51.424C36.5765 50.896 36.3125 50.256 36.3125 49.504V46.888C36.3125 46.392 36.4325 45.952 36.6725 45.568C36.9285 45.168 37.2565 44.848 37.6565 44.608C38.0565 44.368 38.5045 44.248 39.0005 44.248H41.8325C41.9125 44.248 41.9845 44.216 42.0485 44.152C42.1285 44.088 42.1685 44.008 42.1685 43.912V42.952C42.1685 42.856 42.1285 42.776 42.0485 42.712C41.9845 42.648 41.9125 42.616 41.8325 42.616H39.0005C38.6965 42.616 38.4325 42.512 38.2085 42.304C38.0005 42.096 37.8965 41.84 37.8965 41.536V40.888C37.8965 40.568 38.0005 40.304 38.2085 40.096C38.4325 39.872 38.6965 39.76 39.0005 39.76H42.3365C42.8325 39.76 43.2805 39.88 43.6805 40.12C44.0805 40.36 44.4005 40.688 44.6405 41.104C44.8805 41.504 45.0005 41.952 45.0005 42.448V49.504ZM42.1685 49.048V47.392C42.1685 47.312 42.1285 47.24 42.0485 47.176C41.9845 47.112 41.9125 47.08 41.8325 47.08H39.5045C39.4245 47.08 39.3445 47.112 39.2645 47.176C39.2005 47.24 39.1685 47.312 39.1685 47.392V49.048C39.1685 49.128 39.2005 49.2 39.2645 49.264C39.3445 49.328 39.4245 49.36 39.5045 49.36H41.8325C41.9125 49.36 41.9845 49.328 42.0485 49.264C42.1285 49.2 42.1685 49.128 42.1685 49.048Z" fill="#0C356A"/>
<path d="M34.3599 51.088C34.3599 51.392 34.2559 51.656 34.0479 51.88C33.8399 52.088 33.5839 52.192 33.2799 52.192H32.6079C32.3039 52.192 32.0479 52.088 31.8399 51.88C31.6319 51.656 31.5279 51.392 31.5279 51.088V42.952C31.5279 42.856 31.4879 42.776 31.4079 42.712C31.3439 42.648 31.2719 42.616 31.1919 42.616H28.8639C28.7839 42.616 28.7039 42.648 28.6239 42.712C28.5599 42.776 28.5279 42.856 28.5279 42.952V51.088C28.5279 51.392 28.4239 51.656 28.2159 51.88C28.0079 52.088 27.7519 52.192 27.4479 52.192H26.7759C26.4719 52.192 26.2079 52.088 25.9839 51.88C25.7759 51.656 25.6719 51.392 25.6719 51.088V42.448C25.6719 41.952 25.7919 41.504 26.0319 41.104C26.2879 40.688 26.6159 40.36 27.0159 40.12C27.4159 39.88 27.8639 39.76 28.3599 39.76H31.6959C32.1919 39.76 32.6399 39.88 33.0399 40.12C33.4399 40.36 33.7599 40.688 33.9999 41.104C34.2399 41.504 34.3599 41.952 34.3599 42.448V51.088Z" fill="#0C356A"/>
<path d="M23.7193 49.504C23.7193 50.256 23.4553 50.896 22.9273 51.424C22.4153 51.936 21.7913 52.192 21.0553 52.192H17.7193C16.9833 52.192 16.3513 51.936 15.8233 51.424C15.2953 50.896 15.0312 50.256 15.0312 49.504V46.888C15.0312 46.392 15.1512 45.952 15.3912 45.568C15.6472 45.168 15.9753 44.848 16.3753 44.608C16.7753 44.368 17.2233 44.248 17.7193 44.248H20.5512C20.6312 44.248 20.7033 44.216 20.7673 44.152C20.8473 44.088 20.8872 44.008 20.8872 43.912V42.952C20.8872 42.856 20.8473 42.776 20.7673 42.712C20.7033 42.648 20.6312 42.616 20.5512 42.616H17.7193C17.4153 42.616 17.1513 42.512 16.9273 42.304C16.7193 42.096 16.6153 41.84 16.6153 41.536V40.888C16.6153 40.568 16.7193 40.304 16.9273 40.096C17.1513 39.872 17.4153 39.76 17.7193 39.76H21.0553C21.5513 39.76 21.9992 39.88 22.3992 40.12C22.7992 40.36 23.1192 40.688 23.3593 41.104C23.5992 41.504 23.7193 41.952 23.7193 42.448V49.504ZM20.8872 49.048V47.392C20.8872 47.312 20.8473 47.24 20.7673 47.176C20.7033 47.112 20.6312 47.08 20.5512 47.08H18.2233C18.1433 47.08 18.0633 47.112 17.9833 47.176C17.9193 47.24 17.8872 47.312 17.8872 47.392V49.048C17.8872 49.128 17.9193 49.2 17.9833 49.264C18.0633 49.328 18.1433 49.36 18.2233 49.36H20.5512C20.6312 49.36 20.7033 49.328 20.7673 49.264C20.8473 49.2 20.8872 49.128 20.8872 49.048Z" fill="#0C356A"/>
<path d="M13.0794 51.088C13.0794 51.392 12.9754 51.656 12.7674 51.88C12.5594 52.088 12.2954 52.192 11.9754 52.192H11.3274C11.0234 52.192 10.7594 52.088 10.5354 51.88C10.3274 51.656 10.2234 51.392 10.2234 51.088V43.864C10.2234 43.8 10.1914 43.76 10.1274 43.744C10.0794 43.728 10.0394 43.744 10.0074 43.792L7.70338 48.544C7.65538 48.672 7.55138 48.784 7.39138 48.88C7.23138 48.976 7.07938 49.056 6.93538 49.12C6.80738 49.168 6.74338 49.192 6.74338 49.192C6.24738 49.192 5.91938 48.976 5.75938 48.544L3.45538 43.792C3.43938 43.744 3.39938 43.728 3.33538 43.744C3.27138 43.76 3.23938 43.8 3.23938 43.864V51.088C3.23938 51.392 3.12738 51.656 2.90338 51.88C2.69537 52.088 2.43937 52.192 2.13538 52.192H1.46338C1.15938 52.192 0.895375 52.088 0.671375 51.88C0.463375 51.656 0.359375 51.392 0.359375 51.088V37.072C0.359375 36.752 0.463375 36.488 0.671375 36.28C0.895375 36.072 1.15938 35.968 1.46338 35.968H2.15937C2.60738 35.968 2.93537 36.176 3.14337 36.592C3.22338 36.768 3.38338 37.112 3.62338 37.624C3.87938 38.12 4.17538 38.712 4.51138 39.4C4.84738 40.088 5.19137 40.816 5.54338 41.584C5.91138 42.336 6.26338 43.056 6.59938 43.744C6.63138 43.808 6.67138 43.84 6.71938 43.84C6.78338 43.84 6.83138 43.808 6.86338 43.744L10.2954 36.592C10.5034 36.176 10.8394 35.968 11.3034 35.968H11.9754C12.2954 35.968 12.5594 36.072 12.7674 36.28C12.9754 36.488 13.0794 36.752 13.0794 37.072V51.088Z" fill="#0C356A"/>
<path d="M80.1206 6.53601C80.1206 6.84001 80.0166 7.09601 79.8086 7.30401C79.6006 7.51201 79.3446 7.61601 79.0406 7.61601H76.1846C75.9766 7.61601 75.8726 7.72801 75.8726 7.95201V16.088C75.8726 16.392 75.7606 16.656 75.5366 16.88C75.3286 17.088 75.0726 17.192 74.7686 17.192H74.0966C73.7926 17.192 73.5366 17.088 73.3286 16.88C73.1206 16.656 73.0166 16.392 73.0166 16.088V7.44801C73.0166 6.95201 73.1366 6.50401 73.3766 6.10401C73.6166 5.68801 73.9366 5.36001 74.3366 5.12001C74.7366 4.88001 75.1846 4.76001 75.6806 4.76001H79.0406C79.3446 4.76001 79.6006 4.87201 79.8086 5.09601C80.0166 5.30401 80.1206 5.56801 80.1206 5.88801V6.53601Z" fill="#0C356A"/>
<path d="M71.0396 10.064C71.0396 10.544 70.9196 10.992 70.6796 11.408C70.4396 11.808 70.1196 12.136 69.7196 12.392C69.3196 12.632 68.8716 12.752 68.3756 12.752H65.5436C65.4636 12.752 65.3836 12.784 65.3036 12.848C65.2396 12.896 65.2076 12.96 65.2076 13.04V14.048C65.2076 14.128 65.2396 14.2 65.3036 14.264C65.3836 14.328 65.4636 14.36 65.5436 14.36H68.3756C68.6796 14.36 68.9356 14.464 69.1436 14.672C69.3676 14.88 69.4796 15.144 69.4796 15.464V16.088C69.4796 16.392 69.3676 16.656 69.1436 16.88C68.9356 17.088 68.6796 17.192 68.3756 17.192H65.0396C64.3036 17.192 63.6716 16.936 63.1436 16.424C62.6156 15.896 62.3516 15.256 62.3516 14.504V7.44801C62.3516 6.95201 62.4716 6.50401 62.7116 6.10401C62.9676 5.70401 63.2956 5.38401 63.6956 5.14401C64.0956 4.88801 64.5436 4.76001 65.0396 4.76001H68.3756C68.8716 4.76001 69.3196 4.88801 69.7196 5.14401C70.1196 5.38401 70.4396 5.70401 70.6796 6.10401C70.9196 6.50401 71.0396 6.95201 71.0396 7.44801V10.064ZM68.2076 9.58401V7.95201C68.2076 7.85601 68.1676 7.77601 68.0876 7.71201C68.0236 7.64801 67.9516 7.61601 67.8716 7.61601H65.5436C65.4636 7.61601 65.3836 7.64801 65.3036 7.71201C65.2396 7.77601 65.2076 7.85601 65.2076 7.95201V9.58401C65.2076 9.64801 65.2396 9.71201 65.3036 9.77601C65.3836 9.84001 65.4636 9.87201 65.5436 9.87201H67.8716C67.9516 9.87201 68.0236 9.84001 68.0876 9.77601C68.1676 9.71201 68.2076 9.64801 68.2076 9.58401Z" fill="#0C356A"/>
<path d="M60.3989 14.504C60.3989 15.256 60.1349 15.896 59.6069 16.424C59.0949 16.936 58.4709 17.192 57.7349 17.192H54.3989C53.6629 17.192 53.0309 16.936 52.5029 16.424C51.9749 15.896 51.7109 15.256 51.7109 14.504V13.52C51.7109 13.216 51.8149 12.96 52.0229 12.752C52.2469 12.528 52.5109 12.416 52.8149 12.416H53.4869C53.7909 12.416 54.0469 12.528 54.2549 12.752C54.4629 12.96 54.5669 13.216 54.5669 13.52V14.048C54.5669 14.256 54.6789 14.36 54.9029 14.36H57.2309C57.3109 14.36 57.3829 14.328 57.4469 14.264C57.5269 14.2 57.5669 14.128 57.5669 14.048V13.16C57.5669 13.032 57.5029 12.944 57.3749 12.896L53.8949 11.792C53.2549 11.568 52.7269 11.184 52.3109 10.64C51.9109 10.096 51.7109 9.48001 51.7109 8.79201V7.44801C51.7109 6.95201 51.8309 6.50401 52.0709 6.10401C52.3269 5.70401 52.6549 5.38401 53.0549 5.14401C53.4549 4.88801 53.9029 4.76001 54.3989 4.76001H57.7349C58.2309 4.76001 58.6789 4.88801 59.0789 5.14401C59.4789 5.38401 59.7989 5.70401 60.0389 6.10401C60.2789 6.50401 60.3989 6.95201 60.3989 7.44801V8.40801C60.3989 8.71201 60.2949 8.97601 60.0869 9.20001C59.8789 9.40801 59.6229 9.51201 59.3189 9.51201H58.6469C58.3429 9.51201 58.0869 9.40801 57.8789 9.20001C57.6709 8.97601 57.5669 8.71201 57.5669 8.40801V7.95201C57.5669 7.85601 57.5269 7.77601 57.4469 7.71201C57.3829 7.64801 57.3109 7.61601 57.2309 7.61601H54.9029C54.6789 7.61601 54.5669 7.72801 54.5669 7.95201V8.79201C54.5669 8.95201 54.6309 9.04801 54.7589 9.08001L58.2389 10.184C58.8949 10.392 59.4149 10.768 59.7989 11.312C60.1989 11.856 60.3989 12.472 60.3989 13.16V14.504Z" fill="#0C356A"/>
<path d="M49.7581 14.024C49.7581 14.6 49.6141 15.128 49.3261 15.608C49.0381 16.088 48.6541 16.472 48.1741 16.76C47.6941 17.048 47.1661 17.192 46.5901 17.192H42.2701C41.6941 17.192 41.1581 17.048 40.6621 16.76C40.1821 16.472 39.7981 16.088 39.5101 15.608C39.2221 15.128 39.0781 14.6 39.0781 14.024V2.07202C39.0781 1.75202 39.1821 1.48802 39.3901 1.28002C39.6141 1.07202 39.8781 0.968018 40.1821 0.968018H40.8541C41.1581 0.968018 41.4141 1.07202 41.6221 1.28002C41.8461 1.48802 41.9581 1.75202 41.9581 2.07202V14.024C41.9581 14.104 41.9901 14.184 42.0541 14.264C42.1181 14.328 42.1901 14.36 42.2701 14.36H46.5901C46.6701 14.36 46.7421 14.328 46.8061 14.264C46.8701 14.184 46.9021 14.104 46.9021 14.024V2.07202C46.9021 1.75202 47.0061 1.48802 47.2141 1.28002C47.4381 1.07202 47.7021 0.968018 48.0061 0.968018H48.6541C48.9741 0.968018 49.2381 1.07202 49.4461 1.28002C49.6541 1.48802 49.7581 1.75202 49.7581 2.07202V14.024Z" fill="#0C356A"/>
</svg>
