<svg width="81" height="75" viewBox="0 0 81 75" fill="none" xmlns="http://www.w3.org/2000/svg">
<path d="M26.4833 5.80174C32.3192 5.80174 37.0503 10.5379 37.0503 16.38C37.0503 22.2221 32.3192 26.9583 26.4833 26.9583C20.6475 26.9583 15.9163 22.2221 15.9163 16.38C15.9163 10.5379 20.6471 5.80174 26.4833 5.80174ZM9.45698 45.4488C9.45698 44.6546 9.96682 44.1159 10.7884 44.1159C11.61 44.1159 12.1198 44.6263 12.1198 45.4488V74.9997H41.1576V45.4488C41.1576 44.6546 41.6675 44.1159 42.489 44.1159C43.2824 44.1159 43.8205 44.6263 43.8205 45.4488V74.9997H53.056V42.7831C53.056 35.4947 47.1068 29.5674 39.8544 29.5674H37.1916L29.4294 41.6486L28.4944 32.6018L29.7694 29.5388H24.0468L25.3217 32.6018L24.3303 41.7051L16.5678 29.5674H13.4516C6.17095 29.5674 0.25 35.523 0.25 42.7831V75H9.48556V45.4491L9.45698 45.4488ZM67.5516 23.5171H78.477C79.4522 23.5171 80.25 22.7185 80.25 21.7422V1.8836C80.25 0.922571 79.4122 0 78.4659 0H48.397C47.4081 0 46.5992 0.809753 46.5992 1.7997V21.8217C46.5992 22.7582 47.3576 23.5175 48.2932 23.5175H59.2976V26.3777H56.4046C56.4135 26.384 56.4405 26.3904 56.4405 26.3926V28.1446C56.4405 28.1446 56.389 28.2845 56.4046 28.2845H70.0913V26.3777H67.5516V23.5171ZM49.1389 19.7036V2.86019H77.7103V19.7036H49.1389Z" fill="#6D86A6"/>
</svg>
