<svg width="92" height="91" viewBox="0 0 92 91" fill="none" xmlns="http://www.w3.org/2000/svg">
<g clip-path="url(#clip0_1227_201)">
<path d="M61.804 76.3587C61.3324 76.0718 60.9216 75.6871 60.595 75.221C60.4442 75.006 60.3168 74.7787 60.2112 74.5438H6.62877V21.73H79.3593V56.2155C80.9119 56.3558 82.2147 57.3756 82.7617 58.772C83.246 58.5065 83.7858 58.3425 84.3532 58.2924C84.7369 58.259 85.1181 58.2829 85.4878 58.3559V8.57291C85.4878 5.75665 83.1971 3.46545 80.381 3.46545H5.60724C2.79119 3.46545 0.5 5.75665 0.5 8.57291V75.5655C0.5 78.3818 2.79119 80.6728 5.60724 80.6728H61.3385C60.9036 79.7921 60.8004 78.7979 61.0564 77.8414C61.2039 77.2911 61.4592 76.7893 61.804 76.3587ZM73.7508 12.0419C73.7508 11.0004 74.5951 10.1559 75.6365 10.1559H77.5223C78.564 10.1559 79.408 11.0002 79.408 12.0419V14.1792C79.408 15.2207 78.5637 16.065 77.5223 16.065H75.6365C74.5948 16.065 73.7508 15.2207 73.7508 14.1792V12.0419ZM64.9819 12.0419C64.9819 11.0004 65.8262 10.1559 66.8677 10.1559H68.7536C69.7953 10.1559 70.6394 11.0002 70.6394 12.0419V14.1792C70.6394 15.2207 69.7951 16.065 68.7536 16.065H66.8677C65.8262 16.065 64.9819 15.2207 64.9819 14.1792V12.0419ZM56.2129 12.0419C56.2129 11.0004 57.0573 10.1559 58.0986 10.1559H59.9843C61.026 10.1559 61.8703 11.0002 61.8703 12.0419V14.1792C61.8703 15.2207 61.026 16.065 59.9843 16.065H58.0986C57.0573 16.065 56.2129 15.2207 56.2129 14.1792V12.0419Z" fill="#6D86A6"/>
<path d="M91.4882 72.7621L90.9215 69.5484C90.845 69.1156 90.4326 68.8265 89.9994 68.9028L87.1416 69.4064C86.7985 68.6014 86.3603 67.8473 85.8403 67.1571L87.7069 64.932C87.8426 64.7707 87.9087 64.5616 87.8905 64.3512C87.8718 64.1408 87.7704 63.9466 87.6088 63.8108L85.1093 61.7131C84.9477 61.5774 84.7381 61.5115 84.5279 61.53C84.3175 61.5484 84.1233 61.6496 83.9877 61.8112L82.1227 64.0346C81.3571 63.6445 80.5382 63.3438 79.6803 63.1453V60.2432C79.6803 59.8037 79.3238 59.447 78.8843 59.447H75.6208C75.1815 59.447 74.8249 59.8037 74.8249 60.2432V63.1453C73.9665 63.3435 73.1484 63.6445 72.3824 64.0346L70.517 61.8115C70.2345 61.4747 69.7326 61.4309 69.3956 61.7133L66.8959 63.8108C66.7343 63.9466 66.6331 64.1408 66.6144 64.3512C66.5962 64.5616 66.6621 64.771 66.7978 64.9326L68.6647 67.1573C68.1454 67.8473 67.7064 68.6018 67.3634 69.4067L64.5055 68.9028C64.0734 68.8268 63.6601 69.1156 63.5834 69.5484L63.017 72.7621C62.9803 72.9699 63.0278 73.1836 63.1485 73.3567C63.2701 73.5299 63.454 73.6475 63.6621 73.6841L66.5221 74.1882C66.5687 75.0743 66.723 75.9316 66.9713 76.7479L64.4576 78.1987C64.2747 78.3038 64.1414 78.478 64.0866 78.6817C64.032 78.8857 64.0608 79.1028 64.1661 79.2857L65.7977 82.1117C65.9028 82.2946 66.077 82.4279 66.2807 82.4825C66.3485 82.5007 66.4177 82.5096 66.4868 82.5096C66.6253 82.5096 66.7624 82.4736 66.8847 82.4029L69.4004 80.9504C69.992 81.5842 70.6598 82.1459 71.3897 82.621L70.3963 85.3499C70.3244 85.5484 70.3337 85.7672 70.423 85.9586C70.5123 86.1499 70.6737 86.298 70.872 86.3699L73.9379 87.4857C74.0259 87.5178 74.1182 87.5342 74.2103 87.5342C74.3251 87.5342 74.4406 87.5093 74.547 87.4595C74.7384 87.3704 74.886 87.2088 74.9581 87.0103L75.9513 84.2813C76.3771 84.3329 76.8105 84.3596 77.2502 84.3596C77.6899 84.3596 78.1233 84.3325 78.5491 84.2813L79.5425 87.0103C79.6144 87.2088 79.7626 87.3704 79.9535 87.4595C80.0597 87.5091 80.1748 87.5342 80.2903 87.5342C80.3822 87.5342 80.4745 87.5182 80.5625 87.4857L83.6288 86.3699C83.8267 86.298 83.9883 86.1495 84.0774 85.9586C84.1667 85.7672 84.1762 85.5484 84.104 85.3499L83.1107 82.6214C83.8399 82.1464 84.5078 81.5842 85.1 80.9508L87.6157 82.4034C87.7377 82.4736 87.8751 82.51 88.0136 82.51C88.0825 82.51 88.1523 82.5007 88.2197 82.4829C88.4236 82.4283 88.5974 82.2946 88.7027 82.1121L90.3342 79.2857C90.4395 79.1032 90.4684 78.8857 90.4138 78.6817C90.3589 78.4785 90.2257 78.3042 90.0428 78.1987L87.5295 76.7483C87.7778 75.9318 87.9317 75.0745 87.9782 74.1886L90.8383 73.6844C91.0463 73.6477 91.2309 73.5301 91.3519 73.3569C91.4773 73.1836 91.5248 72.9699 91.4882 72.7621ZM77.2528 77.8689C74.8355 77.8689 72.8754 75.9088 72.8754 73.4913C72.8754 71.0738 74.8357 69.1139 77.2528 69.1139C79.6703 69.1139 81.6304 71.0738 81.6304 73.4913C81.6304 75.9088 79.6703 77.8689 77.2528 77.8689Z" fill="#6D86A6"/>
<path d="M36.1894 51.0058C36.1894 49.9761 35.5859 49.0302 34.6517 48.5963L26.1017 44.6237L34.6519 40.6507C35.5859 40.2165 36.1894 39.2708 36.1894 38.2414V38.1723C36.1894 37.26 35.7302 36.4224 34.9618 35.9329C34.5366 35.6614 34.0414 35.5177 33.5302 35.5177C33.1449 35.5177 32.7581 35.6024 32.4121 35.7632L18.7429 42.1198C17.8091 42.554 17.2061 43.4997 17.2061 44.5288V44.7189C17.2061 45.7467 17.8089 46.6917 18.7431 47.1282L32.4136 53.4854C32.767 53.649 33.1434 53.732 33.5322 53.732C34.0388 53.732 34.5325 53.5881 34.9618 53.315C35.7306 52.8235 36.1896 51.9866 36.1896 51.0754L36.1894 51.0058Z" fill="#6D86A6"/>
<path d="M49.676 29.0407C49.1774 28.3581 48.3754 27.9507 47.5304 27.9507H47.4624C46.3022 27.9507 45.285 28.6929 44.9315 29.7961L35.9254 57.7013C35.669 58.507 35.8133 59.3944 36.3113 60.0768C36.81 60.759 37.612 61.1666 38.4569 61.1666H38.5252C39.6849 61.1666 40.7015 60.4242 41.0545 59.3211L50.0596 31.4181C50.3183 30.6131 50.1749 29.7244 49.676 29.0407Z" fill="#6D86A6"/>
<path d="M67.2439 42.1196L53.5745 35.763C53.2295 35.6027 52.8434 35.5179 52.4581 35.5179C51.9471 35.5179 51.4517 35.6612 51.0268 35.9323C50.257 36.4227 49.7979 37.26 49.7979 38.1723V38.2415C49.7979 39.2699 50.4009 40.2158 51.3358 40.6518L59.8856 44.624L51.3356 48.5964C50.4014 49.0302 49.7979 49.9761 49.7979 51.0059V51.0754C49.7979 51.9867 50.257 52.8234 51.0263 53.3153C51.4541 53.5879 51.9482 53.732 52.4555 53.732C52.8438 53.732 53.2198 53.649 53.5756 53.4847L67.2456 47.1276C68.179 46.6922 68.7816 45.7469 68.7816 44.7191V44.5291C68.781 43.4997 68.1779 42.554 67.2439 42.1196Z" fill="#6D86A6"/>
</g>
<defs>
<clipPath id="clip0_1227_201">
<rect width="91" height="91" fill="white" transform="translate(0.5)"/>
</clipPath>
</defs>
</svg>
